<svg width="29" height="29" viewBox="0 0 29 29" fill="none" xmlns="http://www.w3.org/2000/svg">
<path d="M23.7529 5.1688C21.2739 2.71059 17.991 1.35938 14.5024 1.35938C14.4834 1.35938 14.4639 1.35938 14.4448 1.35938C10.9349 1.37433 7.64026 2.755 5.16892 5.24764C2.69758 7.74028 1.34454 11.0458 1.3595 14.5557C1.37445 18.0656 2.75512 21.3599 5.24731 23.8312C7.72636 26.2894 11.0092 27.6406 14.4979 27.6406C14.5169 27.6406 14.5364 27.6406 14.5554 27.6406C18.0653 27.6257 21.36 26.245 23.8313 23.7524C26.3027 21.2597 27.6557 17.9542 27.6407 14.4443C27.6258 10.9344 26.2451 7.64014 23.7529 5.1688ZM14.5518 26.7344C13.9627 26.7362 13.3805 26.6954 12.8068 26.6161V17.5024H10.0038V14.5245H12.8068V12.543C12.8068 9.26233 14.405 7.8223 17.1314 7.8223C18.4373 7.8223 19.1274 7.91927 19.4546 7.96322V10.5623H17.595C16.4377 10.5623 16.0335 11.6598 16.0335 12.8968V14.5245H19.4256L18.9652 17.5024H16.0335V26.636C15.5455 26.6968 15.0516 26.7321 14.5518 26.7344ZM23.1879 23.1144C21.4583 24.8589 19.2955 26.018 16.9397 26.492V18.4087H18.9652C19.4124 18.4087 19.7926 18.0829 19.861 17.6411L20.3142 14.7103C20.3269 14.6504 20.3332 14.5884 20.3332 14.5249C20.3332 14.0242 19.9286 13.6187 19.4283 13.6187H19.426H16.9402V12.8973C16.9402 12.364 17.0254 11.469 17.5954 11.469H19.455C19.9557 11.469 20.3613 11.0635 20.3613 10.5628V7.96367C20.3613 7.51009 20.026 7.1263 19.576 7.06558C19.2045 7.01528 18.4727 6.9165 17.1319 6.9165C13.7588 6.9165 11.901 8.91478 11.901 12.5434V13.6187H10.0042C9.50351 13.6187 9.09797 14.0242 9.09797 14.5249V17.5029C9.09797 18.0036 9.50351 18.4091 10.0042 18.4091H11.901V26.4548C9.64353 25.9681 7.5655 24.8535 5.88622 23.1882C3.56486 20.8868 2.27934 17.8196 2.26575 14.5517C2.25215 11.2837 3.51139 8.20609 5.81236 5.88564C8.11333 3.56519 11.1805 2.27967 14.4485 2.26562C14.4666 2.26562 14.4843 2.26562 14.5024 2.26562C17.7499 2.26562 20.8067 3.52395 23.1145 5.81223C25.4354 8.1132 26.7209 11.1804 26.7345 14.4483C26.7481 17.7163 25.4889 20.7939 23.1879 23.1144ZM23.9405 19.8985C23.9401 19.899 23.9396 19.8999 23.9396 19.8999C23.8146 20.116 23.5391 20.1908 23.322 20.0666L22.5354 19.6171C22.3183 19.493 22.2427 19.2161 22.3668 18.9991C22.3673 18.9982 22.3677 18.9977 22.3682 18.9973C22.4932 18.7811 22.7687 18.7064 22.9858 18.8305L23.7724 19.28C23.9895 19.4046 24.0651 19.681 23.9405 19.8985ZM24.9487 17.4353C24.9383 17.4752 24.9229 17.5124 24.903 17.5473C24.8033 17.7199 24.5976 17.8119 24.3955 17.7584L23.5191 17.5273C23.2767 17.4639 23.1331 17.216 23.1965 16.9736C23.2608 16.7335 23.5078 16.5871 23.7502 16.651L24.6261 16.8816C24.8681 16.9451 25.0122 17.1929 24.9487 17.4353ZM20.388 23.0265C20.4728 23.1715 20.4669 23.3455 20.3885 23.4814C20.3504 23.5475 20.2947 23.6046 20.2244 23.6459C20.0079 23.7714 19.7305 23.6984 19.6046 23.4828L19.1483 22.6998C19.0223 22.4836 19.0953 22.2063 19.3114 22.0803C19.5275 21.9539 19.8053 22.0269 19.9317 22.2439L20.388 23.0265ZM25.2859 14.7954C25.2859 14.8788 25.2641 14.9567 25.2251 15.0238C25.1472 15.1588 25.0017 15.2495 24.8341 15.2504L23.9278 15.254C23.6777 15.2549 23.4738 15.0533 23.4729 14.8031C23.4715 14.5517 23.6732 14.3491 23.9242 14.3477L24.8309 14.3446C25.0815 14.3437 25.2849 14.5453 25.2859 14.7954ZM22.3265 21.3766C22.476 21.5248 22.5005 21.7514 22.4004 21.9249C22.3809 21.9584 22.3569 21.9892 22.3292 22.0178C22.1529 22.1954 21.8661 22.1968 21.6885 22.0201L21.0451 21.3816C20.867 21.2049 20.8697 20.9158 21.0428 20.7409C21.2191 20.5633 21.5059 20.5624 21.6835 20.7386L22.3265 21.3766ZM12.307 4.35589C12.3482 4.52808 12.2848 4.70208 12.1575 4.80902C12.1054 4.85297 12.0433 4.88559 11.9726 4.90236C11.6355 4.98347 11.3011 5.08361 10.9775 5.20052C10.7415 5.28525 10.4818 5.16336 10.3975 4.92819C10.3123 4.69256 10.4351 4.43292 10.6699 4.34819C11.0251 4.22041 11.3917 4.1103 11.7601 4.02194C12.0039 3.96303 12.2485 4.11256 12.307 4.35589ZM9.43418 5.38992C9.56378 5.6038 9.49762 5.87884 9.28103 6.01252C7.42684 7.13672 5.9995 8.87173 5.26272 10.899C5.23462 10.9765 5.18795 11.0413 5.12904 11.0907C5.00897 11.1917 4.83995 11.228 4.68317 11.1704C4.44754 11.0853 4.32656 10.8252 4.41175 10.5895C5.21831 8.36877 6.78023 6.46791 8.81159 5.23677C9.02592 5.10763 9.30504 5.17605 9.43418 5.38992Z" fill="#5A6B47"/>
</svg>
