<svg width="34" height="34" viewBox="0 0 34 34" fill="none" xmlns="http://www.w3.org/2000/svg">
<path d="M9.86003 5.78003C7.61077 5.78003 5.78003 7.61077 5.78003 9.86003V24.14C5.78003 26.3893 7.61077 28.22 9.86003 28.22H24.14C26.3893 28.22 28.22 26.3893 28.22 24.14V9.86003C28.22 7.61077 26.3893 5.78003 24.14 5.78003H9.86003ZM9.86003 6.46003H11.56V9.01003C11.5597 9.03256 11.5639 9.05492 11.5723 9.07583C11.5807 9.09673 11.5931 9.11576 11.609 9.1318C11.6248 9.14784 11.6436 9.16058 11.6644 9.16928C11.6852 9.17797 11.7075 9.18245 11.73 9.18245C11.7526 9.18245 11.7749 9.17797 11.7956 9.16928C11.8164 9.16058 11.8353 9.14784 11.8511 9.1318C11.8669 9.11576 11.8794 9.09673 11.8878 9.07583C11.8962 9.05492 11.9003 9.03256 11.9 9.01003V6.46003H24.14C26.0218 6.46003 27.54 7.97829 27.54 9.86003V12.92H23.97C23.9475 12.9197 23.9251 12.9239 23.9042 12.9323C23.8833 12.9407 23.8643 12.9531 23.8483 12.969C23.8322 12.9848 23.8195 13.0036 23.8108 13.0244C23.8021 13.0452 23.7976 13.0675 23.7976 13.09C23.7976 13.1126 23.8021 13.1349 23.8108 13.1556C23.8195 13.1764 23.8322 13.1953 23.8483 13.2111C23.8643 13.2269 23.8833 13.2394 23.9042 13.2478C23.9251 13.2562 23.9475 13.2603 23.97 13.26H27.54V24.14C27.54 26.0218 26.0218 27.54 24.14 27.54H9.86003C7.97829 27.54 6.46003 26.0218 6.46003 24.14V13.26H7.49729C7.57665 13.6467 7.92075 13.94 8.33003 13.94H11.05C11.4593 13.94 11.8034 13.6467 11.8828 13.26H13.0508C12.1292 14.233 11.56 15.5434 11.56 16.9881C11.56 19.0846 12.7497 20.9056 14.4919 21.8092C15.2392 22.1967 16.0887 22.4155 16.9881 22.4155C19.9836 22.4155 22.4155 19.9836 22.4155 16.9881C22.4155 15.5435 21.8462 14.2331 20.9246 13.26H22.95C22.9726 13.2603 22.9949 13.2562 23.0158 13.2478C23.0367 13.2394 23.0558 13.2269 23.0718 13.2111C23.0878 13.1953 23.1006 13.1764 23.1093 13.1556C23.118 13.1349 23.1224 13.1126 23.1224 13.09C23.1224 13.0675 23.118 13.0452 23.1093 13.0244C23.1006 13.0036 23.0878 12.9848 23.0718 12.969C23.0558 12.9531 23.0367 12.9407 23.0158 12.9323C22.9949 12.9239 22.9726 12.9197 22.95 12.92H20.5714C19.6147 12.0764 18.3627 11.56 16.9881 11.56C15.6135 11.56 14.3616 12.0765 13.4048 12.92H11.9V11.73C11.9004 11.7073 11.8962 11.6846 11.8876 11.6635C11.8791 11.6424 11.8664 11.6233 11.8503 11.6071C11.8341 11.591 11.815 11.5783 11.7939 11.5698C11.7728 11.5612 11.7501 11.557 11.7274 11.5574C11.705 11.5577 11.683 11.5625 11.6625 11.5713C11.642 11.5802 11.6235 11.593 11.6079 11.609C11.5924 11.6251 11.5802 11.644 11.572 11.6648C11.5637 11.6855 11.5597 11.7077 11.56 11.73V12.4153C11.4173 12.3069 11.242 12.24 11.05 12.24H10.88V7.31003C10.8804 7.28726 10.8762 7.26465 10.8676 7.24354C10.8591 7.22243 10.8464 7.20325 10.8303 7.18715C10.8141 7.17104 10.795 7.15834 10.7739 7.14979C10.7528 7.14124 10.7301 7.13702 10.7074 7.13737C10.685 7.13772 10.663 7.14246 10.6425 7.15133C10.622 7.16019 10.6035 7.17301 10.5879 7.18904C10.5724 7.20507 10.5602 7.22401 10.552 7.24477C10.5437 7.26553 10.5397 7.2877 10.54 7.31003V12.24H9.86003V9.69003C9.86038 9.66726 9.85616 9.64465 9.84761 9.62354C9.83906 9.60243 9.82636 9.58325 9.81025 9.56715C9.79415 9.55104 9.77497 9.53834 9.75386 9.52979C9.73276 9.52124 9.71014 9.51702 9.68737 9.51737C9.66505 9.51772 9.64301 9.52246 9.62252 9.53133C9.60203 9.54019 9.58348 9.55301 9.56794 9.56904C9.5524 9.58507 9.54017 9.60401 9.53195 9.62477C9.52373 9.64553 9.51968 9.6677 9.52003 9.69003V12.24H8.84003V11.73C8.84039 11.7073 8.83616 11.6846 8.82761 11.6635C8.81906 11.6424 8.80636 11.6233 8.79025 11.6071C8.77415 11.591 8.75497 11.5783 8.73386 11.5698C8.71276 11.5612 8.69014 11.557 8.66737 11.5574C8.64505 11.5577 8.62301 11.5625 8.60252 11.5713C8.58203 11.5802 8.56348 11.593 8.54794 11.609C8.5324 11.6251 8.52017 11.644 8.51195 11.6648C8.50373 11.6855 8.49968 11.7077 8.50003 11.73V12.24H8.33003C7.92075 12.24 7.57665 12.5333 7.49729 12.92H6.46003V9.86003C6.46003 8.90661 6.85072 8.04749 7.48003 7.43089V11.39C7.47971 11.4126 7.48387 11.4349 7.49227 11.4558C7.50067 11.4767 7.51314 11.4958 7.52896 11.5118C7.54478 11.5278 7.56363 11.5406 7.58441 11.5493C7.6052 11.558 7.6275 11.5624 7.65003 11.5624C7.67256 11.5624 7.69486 11.558 7.71565 11.5493C7.73643 11.5406 7.75528 11.5278 7.7711 11.5118C7.78691 11.4958 7.79938 11.4767 7.80779 11.4558C7.81619 11.4349 7.82035 11.4126 7.82003 11.39V7.14202C8.02962 6.98463 8.25661 6.84964 8.50003 6.74358V10.71C8.49971 10.7326 8.50387 10.7549 8.51227 10.7758C8.52067 10.7967 8.53314 10.8158 8.54896 10.8318C8.56478 10.8478 8.58363 10.8606 8.60441 10.8693C8.62519 10.878 8.6475 10.8824 8.67003 10.8824C8.69256 10.8824 8.71486 10.878 8.73565 10.8693C8.75643 10.8606 8.77528 10.8478 8.7911 10.8318C8.80691 10.8158 8.81938 10.7967 8.82779 10.7758C8.83619 10.7549 8.84035 10.7326 8.84003 10.71V6.61542C9.05785 6.54731 9.28559 6.4998 9.52003 6.47663V8.67003C9.51971 8.69256 9.52387 8.71492 9.53227 8.73583C9.54067 8.75673 9.55314 8.77576 9.56896 8.7918C9.58478 8.80784 9.60363 8.82058 9.62441 8.82928C9.64519 8.83797 9.6675 8.84245 9.69003 8.84245C9.71256 8.84245 9.73486 8.83797 9.75565 8.82928C9.77643 8.82058 9.79528 8.80784 9.8111 8.7918C9.82691 8.77576 9.83938 8.75673 9.84778 8.73583C9.85619 8.71492 9.86035 8.69256 9.86003 8.67003V6.46003ZM22.61 8.16003C22.5649 8.16003 22.5217 8.17795 22.4898 8.20983C22.4579 8.24171 22.44 8.28494 22.44 8.33003V11.05C22.44 11.0951 22.4579 11.1384 22.4898 11.1702C22.5217 11.2021 22.5649 11.22 22.61 11.22H25.33C25.3751 11.22 25.4183 11.2021 25.4502 11.1702C25.4821 11.1384 25.5 11.0951 25.5 11.05V8.33003C25.5 8.28494 25.4821 8.24171 25.4502 8.20983C25.4183 8.17795 25.3751 8.16003 25.33 8.16003H22.61ZM22.78 8.50003H25.16V10.88H22.78V8.50003ZM11.7274 9.85737C11.705 9.85772 11.683 9.86246 11.6625 9.87133C11.642 9.88019 11.6235 9.89301 11.6079 9.90904C11.5924 9.92507 11.5802 9.94401 11.572 9.96477C11.5637 9.98553 11.5597 10.0077 11.56 10.03V10.71C11.5597 10.7326 11.5639 10.7549 11.5723 10.7758C11.5807 10.7967 11.5931 10.8158 11.609 10.8318C11.6248 10.8478 11.6436 10.8606 11.6644 10.8693C11.6852 10.878 11.7075 10.8824 11.73 10.8824C11.7526 10.8824 11.7749 10.878 11.7956 10.8693C11.8164 10.8606 11.8353 10.8478 11.8511 10.8318C11.8669 10.8158 11.8794 10.7967 11.8878 10.7758C11.8962 10.7549 11.9003 10.7326 11.9 10.71V10.03C11.9004 10.0073 11.8962 9.98465 11.8876 9.96354C11.8791 9.94243 11.8664 9.92325 11.8503 9.90715C11.8341 9.89104 11.815 9.87834 11.7939 9.86979C11.7728 9.86124 11.7501 9.85702 11.7274 9.85737V9.85737ZM16.9881 11.9C19.8001 11.9 22.0755 14.1763 22.0755 16.9881C22.0755 19.7998 19.7998 22.0755 16.9881 22.0755C16.1439 22.0755 15.349 21.8702 14.6486 21.507C13.0159 20.6602 11.9 18.956 11.9 16.9881C11.9 14.176 14.176 11.9 16.9881 11.9ZM8.33003 12.58H8.6428C8.66105 12.583 8.67967 12.583 8.69792 12.58H9.6628C9.68105 12.583 9.69967 12.583 9.71792 12.58H10.6828C10.7011 12.583 10.7197 12.583 10.7379 12.58H11.05C11.3283 12.58 11.5499 12.7975 11.5587 13.0734C11.5576 13.0845 11.5576 13.0956 11.5587 13.1066C11.5499 13.3825 11.3283 13.6 11.05 13.6H8.33003C8.0518 13.6 7.83015 13.3825 7.82136 13.1066C7.82244 13.0956 7.82244 13.0845 7.82136 13.0734C7.83015 12.7975 8.0518 12.58 8.33003 12.58ZM17 13.26C14.9365 13.26 13.26 14.9365 13.26 17C13.26 19.0636 14.9365 20.74 17 20.74C17.0226 20.7403 17.0449 20.7362 17.0658 20.7278C17.0867 20.7194 17.1058 20.7069 17.1218 20.6911C17.1378 20.6753 17.1506 20.6564 17.1593 20.6356C17.168 20.6149 17.1724 20.5926 17.1724 20.57C17.1724 20.5475 17.168 20.5252 17.1593 20.5044C17.1506 20.4836 17.1378 20.4648 17.1218 20.449C17.1058 20.4331 17.0867 20.4207 17.0658 20.4123C17.0449 20.4039 17.0226 20.3997 17 20.4C15.1202 20.4 13.6 18.8798 13.6 17C13.6 16.4417 13.7367 15.9166 13.9746 15.4521C14.0225 15.9118 14.2996 16.3053 14.6924 16.5093C14.8779 16.6053 15.0889 16.66 15.312 16.66C16.0543 16.66 16.66 16.0543 16.66 15.312C16.66 14.6152 16.1243 14.0458 15.4448 13.9779C15.911 13.7378 16.4388 13.6 17 13.6C18.4805 13.6 19.7374 14.5447 20.2055 15.8625C20.2124 15.8842 20.2236 15.9043 20.2385 15.9216C20.2534 15.9389 20.2716 15.953 20.292 15.9631C20.3125 15.9732 20.3347 15.9791 20.3575 15.9804C20.3803 15.9817 20.4031 15.9785 20.4245 15.9708C20.446 15.9631 20.4657 15.9512 20.4825 15.9358C20.4993 15.9204 20.5128 15.9017 20.5222 15.881C20.5316 15.8602 20.5368 15.8377 20.5374 15.8149C20.5379 15.7922 20.5339 15.7695 20.5255 15.7483C20.0103 14.2977 18.6251 13.26 17 13.26ZM15.312 14.3046C15.8705 14.3046 16.32 14.7534 16.32 15.312C16.32 15.8705 15.8705 16.32 15.312 16.32C15.1441 16.32 14.988 16.2797 14.8491 16.2078C14.526 16.04 14.3046 15.7029 14.3046 15.312C14.3046 14.7534 14.7534 14.3046 15.312 14.3046ZM20.5235 16.318C20.4998 16.3194 20.4766 16.3257 20.4555 16.3366C20.4344 16.3475 20.4158 16.3627 20.4009 16.3812C20.386 16.3998 20.3751 16.4212 20.3691 16.4442C20.363 16.4671 20.3617 16.4911 20.3655 16.5146C20.3807 16.6213 20.3909 16.7292 20.396 16.8387C20.3983 16.8837 20.4183 16.9261 20.4517 16.9564C20.4852 16.9867 20.5293 17.0025 20.5743 17.0003C20.6194 16.9981 20.6618 16.9781 20.6921 16.9447C20.7224 16.9112 20.7382 16.8671 20.736 16.8221C20.7303 16.7017 20.7189 16.5832 20.7022 16.4661C20.6967 16.4234 20.6752 16.3844 20.642 16.3569C20.6089 16.3294 20.5665 16.3155 20.5235 16.318V16.318Z" fill="#5A6B47"/>
</svg>
