<svg width="29" height="29" viewBox="0 0 29 29" fill="none" xmlns="http://www.w3.org/2000/svg">
<g id="Frame">
<path id="Vector" d="M8.00049 1.8125C7.39514 1.8125 6.82697 2.04791 6.39862 2.47626L2.47626 6.39862C2.04791 6.82697 1.8125 7.39514 1.8125 8.00049V25.8281C1.8125 26.5768 2.42316 27.1875 3.17188 27.1875H21.2969C22.0456 27.1875 22.6562 26.5768 22.6562 25.8281V20.8438H26.2812C26.7804 20.8438 27.1875 20.4366 27.1875 19.9375V10.875C27.1875 10.3759 26.7804 9.96875 26.2812 9.96875H22.6562V3.17188C22.6562 2.42316 22.0456 1.8125 21.2969 1.8125H8.00049ZM8.15625 2.71875H21.2969C21.5464 2.71875 21.75 2.9223 21.75 3.17188V9.96875H7.25C6.75085 9.96875 6.34375 10.3759 6.34375 10.875V19.9375C6.34375 20.4366 6.75085 20.8438 7.25 20.8438H21.75V25.8281C21.75 26.0777 21.5464 26.2812 21.2969 26.2812H3.17188C2.9223 26.2812 2.71875 26.0777 2.71875 25.8281V8.15625H6.79688C7.54559 8.15625 8.15625 7.54559 8.15625 6.79688V2.71875ZM7.25 2.94531V6.79688C7.25 7.04645 7.04645 7.25 6.79688 7.25H2.94531C2.99487 7.17566 3.05151 7.10486 3.117 7.03937L7.03937 3.117C7.10486 3.05151 7.17566 2.99487 7.25 2.94531ZM7.25 10.875H26.2812V19.9375H7.25V10.875ZM11.3281 12.6875C11.0768 12.6875 10.875 12.8911 10.875 13.1406V17.6719C10.875 17.9214 11.0768 18.125 11.3281 18.125C11.5795 18.125 11.7812 17.9214 11.7812 17.6719V16.3125H13.1406C13.8893 16.3125 14.5 15.7018 14.5 14.9531V14.0469C14.5 13.2982 13.8893 12.6875 13.1406 12.6875H11.3281ZM15.8594 12.6875C15.608 12.6875 15.4062 12.8911 15.4062 13.1406V17.6719C15.4062 17.9214 15.608 18.125 15.8594 18.125H17.2188C18.2188 18.125 19.0312 17.3126 19.0312 16.3125V14.5C19.0312 13.4999 18.2188 12.6875 17.2188 12.6875H15.8594ZM20.3906 12.6875C20.1393 12.6875 19.9375 12.8911 19.9375 13.1406V17.6719C19.9375 17.9214 20.1393 18.125 20.3906 18.125C20.642 18.125 20.8438 17.9214 20.8438 17.6719V16.3125H22.2031C22.4545 16.3125 22.6562 16.1089 22.6562 15.8594C22.6562 15.6098 22.4545 15.4062 22.2031 15.4062H20.8438V13.5938H22.6562C22.9076 13.5938 23.1094 13.3902 23.1094 13.1406C23.1094 12.8911 22.9076 12.6875 22.6562 12.6875H20.3906ZM11.7812 13.5938H13.1406C13.3902 13.5938 13.5938 13.7973 13.5938 14.0469V14.9531C13.5938 15.2027 13.3902 15.4062 13.1406 15.4062H11.7812V13.5938ZM16.3125 13.5938H17.2188C17.7179 13.5938 18.125 14.0009 18.125 14.5V16.3125C18.125 16.8116 17.7179 17.2188 17.2188 17.2188H16.3125V13.5938ZM4.07812 23.5625C3.82678 23.5625 3.625 23.7661 3.625 24.0156V24.9219C3.625 25.1714 3.82678 25.375 4.07812 25.375C4.32947 25.375 4.53125 25.1714 4.53125 24.9219V24.0156C4.53125 23.7661 4.32947 23.5625 4.07812 23.5625ZM6.34375 23.5625C6.09241 23.5625 5.89062 23.7661 5.89062 24.0156V24.9219C5.89062 25.1714 6.09241 25.375 6.34375 25.375C6.59509 25.375 6.79688 25.1714 6.79688 24.9219V24.0156C6.79688 23.7661 6.59509 23.5625 6.34375 23.5625ZM8.60938 23.5625C8.35803 23.5625 8.15625 23.7661 8.15625 24.0156V24.9219C8.15625 25.1714 8.35803 25.375 8.60938 25.375C8.86072 25.375 9.0625 25.1714 9.0625 24.9219V24.0156C9.0625 23.7661 8.86072 23.5625 8.60938 23.5625ZM10.875 23.5625C10.6237 23.5625 10.4219 23.7661 10.4219 24.0156V24.9219C10.4219 25.1714 10.6237 25.375 10.875 25.375C11.1263 25.375 11.3281 25.1714 11.3281 24.9219V24.0156C11.3281 23.7661 11.1263 23.5625 10.875 23.5625ZM13.1406 23.5625C12.8893 23.5625 12.6875 23.7661 12.6875 24.0156V24.9219C12.6875 25.1714 12.8893 25.375 13.1406 25.375C13.392 25.375 13.5938 25.1714 13.5938 24.9219V24.0156C13.5938 23.7661 13.392 23.5625 13.1406 23.5625ZM15.4062 23.5625C15.1549 23.5625 14.9531 23.7661 14.9531 24.0156V24.9219C14.9531 25.1714 15.1549 25.375 15.4062 25.375C15.6576 25.375 15.8594 25.1714 15.8594 24.9219V24.0156C15.8594 23.7661 15.6576 23.5625 15.4062 23.5625ZM17.6719 23.5625C17.4205 23.5625 17.2188 23.7661 17.2188 24.0156V24.9219C17.2188 25.1714 17.4205 25.375 17.6719 25.375C17.9232 25.375 18.125 25.1714 18.125 24.9219V24.0156C18.125 23.7661 17.9232 23.5625 17.6719 23.5625ZM19.9375 23.5625C19.6862 23.5625 19.4844 23.7661 19.4844 24.0156V24.9219C19.4844 25.1714 19.6862 25.375 19.9375 25.375C20.1888 25.375 20.3906 25.1714 20.3906 24.9219V24.0156C20.3906 23.7661 20.1888 23.5625 19.9375 23.5625Z" fill="#5A6B47"/>
</g>
</svg>
