<svg width="69" height="69" viewBox="0 0 69 69" fill="none" xmlns="http://www.w3.org/2000/svg">
<path d="M16.4847 6.88926C16.1984 6.90144 15.923 7.0024 15.6968 7.17814C15.4705 7.35388 15.3045 7.59568 15.2219 7.87C15.1392 8.14433 15.144 8.43758 15.2355 8.70907C15.327 8.98056 15.5008 9.21684 15.7327 9.38512L21.2527 13.5251C21.4923 13.7043 21.7836 13.8008 22.0828 13.8H46.2247C46.4536 13.8 46.6804 13.857 46.8797 13.9645L62.1972 22.2121C62.9901 22.6391 63.4828 23.4623 63.4828 24.363V24.3872C63.4828 26.2244 61.6823 27.3724 60.0139 26.6028L47.4996 20.8267C47.3187 20.7434 47.122 20.7002 46.9228 20.7H40.0228H31.7428H28.9828C28.7999 20.6975 28.6184 20.7312 28.4487 20.7994C28.279 20.8676 28.1245 20.9689 27.9943 21.0973C27.8641 21.2257 27.7607 21.3787 27.6901 21.5474C27.6195 21.7161 27.5832 21.8972 27.5832 22.08C27.5832 22.2629 27.6195 22.444 27.6901 22.6127C27.7607 22.7814 27.8641 22.9344 27.9943 23.0628C28.1245 23.1912 28.279 23.2925 28.4487 23.3607C28.6184 23.4288 28.7999 23.4626 28.9828 23.46H31.7428H40.0228C41.5638 23.46 42.7828 24.679 42.7828 26.22C42.7828 27.761 41.5638 28.98 40.0228 28.98H22.0828H21.161C20.2662 28.98 19.3918 28.6895 18.6759 28.1526L14.6464 25.1284L7.76262 19.6219C7.51169 19.415 7.19572 19.3033 6.87047 19.3066C6.58359 19.309 6.30461 19.4008 6.07232 19.5692C5.84002 19.7375 5.66597 19.9741 5.57436 20.2459C5.48275 20.5178 5.47813 20.8115 5.56116 21.0861C5.64419 21.3607 5.81073 21.6026 6.03762 21.7782L12.9403 27.2982C12.951 27.3073 12.9617 27.3163 12.9727 27.3251L17.021 30.36C18.2151 31.2556 19.6685 31.74 21.161 31.74H22.0828H40.0228C43.0551 31.74 45.5428 29.2524 45.5428 26.22C45.5428 25.2117 45.248 24.2765 44.7693 23.46H46.6182L58.8577 29.1094C62.2566 30.6775 66.2428 28.1308 66.2428 24.3872V24.363C66.2428 22.4512 65.1871 20.6897 63.5044 19.7836L48.1896 11.536C47.5857 11.2102 46.9094 11.04 46.2247 11.04H22.541L17.3876 7.17496C17.1297 6.97621 16.8099 6.87502 16.4847 6.88926V6.88926ZM34.5001 34.5C27.051 34.5 14.3846 37.8202 7.61168 45.602C4.99967 45.2633 2.42304 46.8431 1.62539 49.4375C0.734356 52.3356 2.37848 55.4461 5.27754 56.3375C7.27121 56.951 9.27373 57.477 11.2773 57.96C17.1195 62.2607 25.1424 64.86 34.5001 64.86C43.8578 64.86 51.8807 62.2621 57.7229 57.96C59.7276 57.4779 61.7295 56.9481 63.7227 56.3348C66.6205 55.4433 68.266 52.3334 67.3748 49.4348C66.7066 47.2627 64.7906 45.7889 62.65 45.567C62.2334 45.5238 61.8093 45.5437 61.3832 45.5993C54.6095 37.8193 41.9489 34.5 34.5001 34.5ZM34.5001 37.26C40.7234 37.26 52.1487 40.335 58.3402 46.381C57.6391 46.5782 56.9415 46.7945 56.2378 46.9739C56.06 47.0168 55.8926 47.0946 55.7451 47.2028C55.5977 47.3109 55.4732 47.4473 55.3789 47.604C55.2846 47.7607 55.2224 47.9345 55.1958 48.1155C55.1693 48.2964 55.179 48.4808 55.2244 48.658C55.2698 48.8351 55.3499 49.0015 55.4601 49.1474C55.5703 49.2933 55.7084 49.4159 55.8664 49.508C56.0244 49.6001 56.1991 49.6598 56.3804 49.6838C56.5617 49.7078 56.7459 49.6955 56.9224 49.6477C58.3832 49.2751 59.8376 48.8668 61.2861 48.4213C61.287 48.4213 61.2879 48.4213 61.2888 48.4213C62.7634 47.9648 64.2857 48.7731 64.7388 50.2461C65.1918 51.7192 64.3827 53.2461 62.9114 53.6988C60.9135 54.3136 58.8958 54.8505 56.8658 55.3348C56.6804 55.3786 56.506 55.4602 56.3537 55.5747C51.0498 59.5755 43.4868 62.1 34.5001 62.1C25.5134 62.1 17.9477 59.5769 12.6438 55.5774C12.4925 55.4623 12.3191 55.3797 12.1344 55.3348C10.1033 54.8489 8.08615 54.3134 6.08883 53.6988C4.61605 53.2459 3.80833 51.7224 4.26141 50.2488C4.71441 48.7753 6.24038 47.9653 7.71141 48.4213C7.71231 48.4222 7.71321 48.4231 7.7141 48.424C9.16378 48.8694 10.6208 49.2778 12.0832 49.6504C12.4372 49.7377 12.8113 49.6814 13.1239 49.4939C13.4365 49.3064 13.6623 49.0028 13.752 48.6495C13.8416 48.2961 13.7879 47.9217 13.6025 47.6078C13.4172 47.2939 13.1152 47.066 12.7624 46.9739C12.0579 46.7944 11.3591 46.5805 10.6574 46.3837C16.8484 40.3369 28.2774 37.26 34.5001 37.26ZM41.4594 51.0385C41.2625 51.0377 41.0676 51.079 40.888 51.1598C36.5831 52.8815 32.4172 52.8815 28.1122 51.1598C27.9424 51.0884 27.7601 51.0517 27.5759 51.052C27.2541 51.0537 26.9431 51.1677 26.6966 51.3744C26.45 51.5811 26.2834 51.8674 26.2256 52.1839C26.1677 52.5003 26.2222 52.8271 26.3797 53.1076C26.5372 53.3882 26.7877 53.6049 27.088 53.7203C31.9822 55.6777 37.0181 55.6777 41.9122 53.7203C42.2189 53.6123 42.4777 53.3994 42.6427 53.1192C42.8078 52.839 42.8686 52.5095 42.8145 52.1888C42.7603 51.8682 42.5947 51.5769 42.3468 51.3665C42.0989 51.156 41.7846 51.0398 41.4594 51.0385V51.0385Z" fill="#3D3D3D"/>
</svg>
