<svg width="80" height="80" viewBox="0 0 80 80" fill="none" xmlns="http://www.w3.org/2000/svg">
<path d="M42.7266 5.98242L41.6953 8.56445L39.1133 9.59766L41.6953 10.6289L42.7266 13.2109L43.7598 10.6289L46.3398 9.59766L43.7598 8.56445L42.7266 5.98242ZM59.6133 11L57.5469 16.3145L52.2305 18.3828L57.5469 20.4492L59.6133 25.7656L61.6797 20.4492L66.9941 18.3828L61.6797 16.3145L59.6133 11ZM35.7871 15.4219L27.1523 23.4453C26.9725 23.5241 23.9372 24.8422 20.2402 27.1875C16.4702 29.5792 12.1731 32.911 10.0195 37.0039C8.76306 38.6723 8 40.7487 8 43V58C8 64.6155 13.3845 70 20 70H29H36H54C56.7495 70 59 67.7495 59 65C59 63.855 58.5447 62.8454 57.8906 62H62.5C65.5256 62 68 59.5256 68 56.5C68 55.1426 67.4494 53.9365 66.627 52.9746C69.5911 52.9027 72 50.4807 72 47.5C72 44.4744 69.5256 42 66.5 42H65.6445C66.455 41.0414 67 39.8464 67 38.5C67 35.4744 64.5256 33 61.5 33H36H33.0273L37.6855 28.457C40.8067 25.4136 40.8166 20.3686 37.709 17.3125L35.7871 15.4219ZM35.748 18.1895L36.3066 18.7383C38.6331 21.0262 38.6259 24.7468 36.2891 27.0254L28.1113 35H36H61.5C63.4444 35 65 36.5556 65 38.5C65 40.4444 63.4444 42 61.5 42V44H66.5C68.4444 44 70 45.5556 70 47.5C70 49.4444 68.4444 51 66.5 51H62.5V53C64.4444 53 66 54.5556 66 56.5C66 58.4444 64.4444 60 62.5 60H54V62C55.6685 62 57 63.3315 57 65C57 66.6685 55.6685 68 54 68H36H29H20C14.4655 68 10 63.5345 10 58V43C10 41.1818 10.6099 39.5193 11.6328 38.1738L11.6855 38.1035L11.7266 38.0273C13.5434 34.4971 17.6467 31.2025 21.3125 28.877C24.9783 26.5514 28.1523 25.1699 28.1523 25.1699L28.3086 25.1016L35.748 18.1895ZM48.7266 23.9824L47.6953 26.5645L45.1133 27.5977L47.6953 28.6289L48.7266 31.2109L49.7598 28.6289L52.3398 27.5977L49.7598 26.5645L48.7266 23.9824ZM43 42C42.448 42 42 42.448 42 43C42 43.552 42.448 44 43 44C43.552 44 44 43.552 44 43C44 42.448 43.552 42 43 42ZM47 42C46.448 42 46 42.448 46 43C46 43.552 46.448 44 47 44C47.552 44 48 43.552 48 43C48 42.448 47.552 42 47 42ZM51 42C50.448 42 50 42.448 50 43C50 43.552 50.448 44 51 44C51.552 44 52 43.552 52 43C52 42.448 51.552 42 51 42ZM55 42C54.448 42 54 42.448 54 43C54 43.552 54.448 44 55 44C55.552 44 56 43.552 56 43C56 42.448 55.552 42 55 42ZM59 42C58.448 42 58 42.448 58 43C58 43.552 58.448 44 59 44C59.552 44 60 43.552 60 43C60 42.448 59.552 42 59 42ZM43 51C42.448 51 42 51.448 42 52C42 52.552 42.448 53 43 53C43.552 53 44 52.552 44 52C44 51.448 43.552 51 43 51ZM47 51C46.448 51 46 51.448 46 52C46 52.552 46.448 53 47 53C47.552 53 48 52.552 48 52C48 51.448 47.552 51 47 51ZM51 51C50.448 51 50 51.448 50 52C50 52.552 50.448 53 51 53C51.552 53 52 52.552 52 52C52 51.448 51.552 51 51 51ZM55 51C54.448 51 54 51.448 54 52C54 52.552 54.448 53 55 53C55.552 53 56 52.552 56 52C56 51.448 55.552 51 55 51ZM59 51C58.448 51 58 51.448 58 52C58 52.552 58.448 53 59 53C59.552 53 60 52.552 60 52C60 51.448 59.552 51 59 51ZM43 60C42.448 60 42 60.448 42 61C42 61.552 42.448 62 43 62C43.552 62 44 61.552 44 61C44 60.448 43.552 60 43 60ZM47 60C46.448 60 46 60.448 46 61C46 61.552 46.448 62 47 62C47.552 62 48 61.552 48 61C48 60.448 47.552 60 47 60ZM51 60C50.448 60 50 60.448 50 61C50 61.552 50.448 62 51 62C51.552 62 52 61.552 52 61C52 60.448 51.552 60 51 60Z" fill="#3D3D3D"/>
</svg>
