<svg width="29" height="29" viewBox="0 0 29 29" fill="none" xmlns="http://www.w3.org/2000/svg">
<path fill-rule="evenodd" clip-rule="evenodd" d="M7.54007 2.90002L9.28007 8.12002V11.6H10.4401V8.12002L12.1801 2.90002H11.0201L9.86007 6.38002L8.70007 2.90002H7.54007ZM13.9201 5.22002C13.3016 5.22002 12.998 5.31745 12.6196 5.62784C12.2571 5.9337 12.1574 6.16932 12.1801 6.96002V9.86002C12.1801 10.4378 12.2752 10.8184 12.6241 11.156C12.9866 11.4935 13.3287 11.6 13.9201 11.6C14.5386 11.6 14.8762 11.4935 15.2251 11.156C15.5876 10.832 15.6601 10.4378 15.6601 9.86002V6.96002C15.6601 6.44799 15.5694 5.96315 15.2183 5.63917C14.8558 5.30612 14.4819 5.22002 13.9201 5.22002ZM16.8201 5.22002V10.44C16.8201 11.0042 17.3887 11.6 17.9801 11.6C18.5714 11.6 18.8841 11.3032 19.1401 11.02V11.6H20.3001V5.22002H19.1401V9.86002C19.1333 10.2565 18.6666 10.44 18.5601 10.44C18.44 10.44 17.9801 10.4151 17.9801 9.86002V5.22002H16.8201ZM13.9201 6.38002C14.0945 6.38002 14.5001 6.37776 14.5001 6.96002V9.86002C14.5001 10.4219 14.1081 10.44 13.9201 10.44C13.7456 10.44 13.3401 10.4332 13.3401 9.86002V6.96002C13.3401 6.48651 13.5916 6.38002 13.9201 6.38002ZM5.80007 12.76C3.71569 12.76 2.32007 14.1421 2.32007 16.24V21.75C2.32007 23.848 3.71569 25.52 5.80007 25.52H23.2001C25.2844 25.52 26.6801 24.138 26.6801 22.04V16.24C26.6801 14.1421 25.2844 12.76 23.2001 12.76H5.80007ZM6.96007 15.08H10.4401V16.24H9.28007V23.2H8.12007V16.24H6.96007V15.08ZM15.0801 15.08H16.2401V17.4C16.3737 17.1916 16.5731 17.0262 16.7634 16.9333C16.9492 16.8382 17.1373 16.7838 17.3276 16.7838C17.7037 16.7838 17.9982 16.9197 18.1998 17.1735C18.4015 17.4295 18.5601 17.7693 18.5601 18.27V21.75C18.5601 22.1805 18.4151 22.4478 18.2248 22.6767C18.039 22.9055 17.7603 23.1955 17.4001 23.2C16.7906 23.2068 16.4644 22.8806 16.2401 22.62V23.2H15.0801V15.08ZM10.4401 16.82H11.6001V21.46C11.6001 21.5937 11.7564 22.0446 12.1801 22.04C12.6513 22.0355 12.6559 21.596 12.7601 21.46V16.82H13.9201V23.2H12.7601V22.62C12.5448 22.8738 12.4338 22.9531 12.1914 23.0732C11.9512 23.2091 11.7066 23.2 11.48 23.2C11.1991 23.2 10.8796 22.9463 10.7301 22.756C10.5964 22.5815 10.4401 22.4025 10.4401 22.04V16.82ZM20.9956 16.82C21.5462 16.82 21.9336 16.9378 22.2259 17.246C22.5249 17.5541 22.6201 17.9143 22.6201 18.4943V20.3H20.3001V21.1972C20.3001 21.5212 20.3431 21.7274 20.4269 21.8497C20.5062 21.9834 20.6671 22.0423 20.8801 22.04C21.1157 22.0378 21.2652 21.9902 21.3445 21.8837C21.4261 21.7885 21.4601 21.5189 21.4601 21.17V20.88H22.6201V21.2244C22.6201 21.8565 22.5702 22.3278 22.2576 22.6359C21.963 22.9599 21.5031 23.1094 20.9005 23.1094C20.3499 23.1094 19.9194 22.9463 19.6113 22.611C19.3032 22.2757 19.1423 21.8157 19.1423 21.2244V18.4943C19.1423 17.9687 19.3259 17.579 19.6634 17.2324C19.9353 16.9537 20.4451 16.82 20.9956 16.82ZM16.8201 17.69C16.5006 17.69 16.2446 17.9778 16.2401 18.27V21.75C16.2446 21.9177 16.5006 22.04 16.8201 22.04C17.1395 22.04 17.4001 21.7931 17.4001 21.4736V18.56C17.4001 17.98 17.1395 17.69 16.8201 17.69ZM20.8801 17.98C20.5606 17.98 20.3046 18.2496 20.3001 18.56V19.14H21.4601V18.56C21.4601 18.2043 21.1995 17.98 20.8801 17.98Z" fill="#5A6B47"/>
</svg>
