<svg width="104" height="104" viewBox="0 0 104 104" fill="none" xmlns="http://www.w3.org/2000/svg">
<path d="M89.9998 28.6669C90.7362 28.6669 91.3332 28.07 91.3332 27.3336C91.3332 26.5972 90.7362 26.0002 89.9998 26.0002C89.2635 26.0002 88.6665 26.5972 88.6665 27.3336C88.6665 28.07 89.2635 28.6669 89.9998 28.6669Z" fill="white"/>
<path d="M67.3333 42.0003C71.3333 42.0003 79.0826 42.2509 83.0826 39.583C84.3333 38.083 83.9159 36.4163 83.0826 35.5829C83.0826 35.5843 75.3333 27.3336 63.3333 24.6669C63 17.7496 54.0826 19.3336 55.3333 26.0003C51.4999 24.7496 44.5826 23.0829 39.3333 25.7496C32.8986 29.0176 26.4266 34.2856 24.8746 50.0283C23.0999 52.347 19.4426 57.295 20.4173 62.1656C24.4159 82.167 53.8679 74.0003 60.6666 74.0003C68.6666 74.0003 71.6106 75.4443 71.2773 77.8336C71.0933 79.1536 72.944 81.0563 74 78.0003C76.6666 70.0003 60.6666 69.5829 60.6666 69.5829C60.6666 69.5829 53.9999 69.5829 41.9999 69.5829C33.1026 69.5829 31.0119 66.0243 30.4159 63.7496H51.5373C51.5373 63.7509 51.3333 59.3336 45.9999 59.3336C46.6826 57.6629 48.8333 55.9163 51.3333 55.3336L58.9159 63.7509H65.5826C65.5826 63.7509 65.9999 60.667 61.9999 60.667C57.9999 60.667 57.9999 54.0003 57.9999 54.0003L58.8079 53.3936C60.1399 52.3936 61.3413 51.2443 62.4319 50.0003H66C66 50.0003 68.4399 50.5816 68.6666 52.667C69.0826 56.5003 71.9159 56.0003 71.7493 52.9176C71.5346 48.9229 69.916 48.2509 68.6666 47.3336L65.4199 45.711C65.5626 45.451 65.7293 45.207 65.8626 44.9416L67.3333 42.0003Z" fill="#B8DD8E"/>
<path d="M72.5559 80.5762C72.3879 80.5762 72.2425 80.5522 72.1305 80.5256C71.0119 80.2576 70.1812 78.9403 70.3532 77.7056C70.4092 77.3016 70.3239 76.9936 70.0732 76.7069C69.3692 75.8976 67.1665 74.9336 60.6665 74.9336C59.5532 74.9336 57.6679 75.1829 55.4839 75.4682C44.1239 76.9642 22.9799 79.7496 19.5012 62.3496C18.4532 57.1056 22.3052 51.8576 23.9732 49.6709C25.6132 33.7176 32.4412 28.2029 38.9105 24.9176C43.6465 22.5122 49.6585 23.3602 54.2799 24.6989C54.2959 22.9002 55.0052 21.3509 56.3199 20.3229C57.7745 19.1896 59.7479 18.9323 61.3545 19.6656C62.9105 20.3789 63.9252 21.9056 64.1999 23.9109C75.9585 26.7509 83.4452 34.6056 83.7625 34.9443C84.9465 36.1269 85.3505 38.3189 83.7999 40.1816C83.7425 40.2509 83.6745 40.3109 83.6012 40.3603C79.6612 42.9869 72.5385 42.9429 68.2839 42.9376L67.9092 42.9362L66.7185 45.3176L69.0825 46.5002C69.1305 46.5243 69.1745 46.5509 69.2185 46.5829L69.5972 46.8496C70.8745 47.7336 72.4625 48.8323 72.6812 52.8683C72.8025 55.1082 71.6545 56.2256 70.5385 56.3162C69.4572 56.3989 68.0385 55.5322 67.7372 52.7696C67.6052 51.5589 66.2385 51.0509 65.8692 50.9362H62.8505C61.7425 52.1616 60.5732 53.2389 59.3679 54.1429L58.9505 54.4549C59.0332 55.8109 59.4879 59.7349 61.9985 59.7349C63.6345 59.7349 64.8652 60.1949 65.6572 61.1003C66.6879 62.2803 66.5279 63.7163 66.5065 63.8763C66.4439 64.3403 66.0492 64.6842 65.5825 64.6842H58.9159C58.6519 64.6842 58.3985 64.5723 58.2212 64.3763L51.0225 56.3856C49.5799 56.8336 48.3785 57.6776 47.6132 58.5402C51.2505 59.2043 52.3945 62.0909 52.4692 63.7082C52.4812 63.9629 52.3879 64.2109 52.2119 64.3963C52.0359 64.5816 51.7932 64.6856 51.5372 64.6856H31.7639C33.1239 67.3189 36.5585 68.6522 41.9999 68.6522H60.6665C61.1199 68.6642 71.2199 68.9763 74.3119 73.3869C75.3052 74.8043 75.4985 76.4576 74.8852 78.2989C74.2212 80.2149 73.2159 80.5762 72.5559 80.5762ZM60.6665 73.0669C66.6119 73.0669 70.0479 73.8336 71.4799 75.4816C72.0812 76.1736 72.3319 77.0309 72.2012 77.9629C72.1599 78.2656 72.4279 78.6709 72.5639 78.7109C72.5945 78.6856 72.8585 78.4429 73.1172 77.6963C73.5345 76.4403 73.4265 75.3763 72.7825 74.4563C70.6585 71.4283 63.2985 70.5869 60.6412 70.5176H41.9999C33.0919 70.5176 30.2932 66.9656 29.5145 63.9869C29.4399 63.7083 29.5012 63.4096 29.6785 63.1816C29.8545 62.9523 30.1279 62.8189 30.4172 62.8189H50.3865C49.9999 61.7642 48.9345 60.2669 45.9999 60.2669C45.6892 60.2669 45.3985 60.1123 45.2252 59.8536C45.0519 59.5949 45.0185 59.2682 45.1359 58.9803C45.9759 56.9243 48.4385 55.0509 51.1212 54.4243C51.4532 54.3442 51.7999 54.4549 52.0279 54.7082L59.3332 62.8162H64.5412C64.4785 62.6469 64.3839 62.4723 64.2425 62.3136C63.8172 61.8403 63.0639 61.6003 61.9999 61.6003C58.1052 61.6003 57.0665 56.8229 57.0665 54.0003C57.0665 53.7056 57.2052 53.4296 57.4399 53.2536L58.2479 52.6469C59.4532 51.7429 60.6239 50.6456 61.7292 49.3856C61.9065 49.1829 62.1625 49.0669 62.4305 49.0669H65.9999C66.0732 49.0669 66.1452 49.0763 66.2159 49.0936C66.3425 49.1229 69.2999 49.8576 69.5945 52.5669C69.7505 54.0149 70.2305 54.4669 70.3879 54.4536C70.4919 54.4443 70.8759 54.0363 70.8172 52.9683C70.6492 49.8456 69.6225 49.1362 68.5359 48.3842C68.4145 48.3002 68.2959 48.2189 68.1785 48.1349L65.0025 46.5469C64.7759 46.4336 64.6039 46.2336 64.5292 45.9922C64.4532 45.7496 64.4799 45.4883 64.6012 45.2656C64.6692 45.1416 64.7399 45.0202 64.8132 44.9002C64.8892 44.7762 64.9639 44.6523 65.0292 44.5243L66.4985 41.5856C66.6559 41.2669 66.9785 41.0669 67.3332 41.0669L68.2919 41.0696C72.2852 41.0962 78.9492 41.1162 82.4479 38.8842C83.2759 37.7976 82.8972 36.7176 82.4225 36.2442C82.3279 36.1429 74.6905 28.1482 63.1305 25.5789C62.7185 25.4882 62.4212 25.1322 62.3999 24.7136C62.3199 23.0562 61.6719 21.8669 60.5759 21.3643C59.5972 20.9149 58.3785 21.0829 57.4692 21.7949C56.3745 22.6509 55.9305 24.1202 56.2505 25.8282C56.3105 26.1522 56.1959 26.4843 55.9479 26.7016C55.7012 26.9176 55.3599 26.9923 55.0425 26.8869C50.6292 25.4483 44.3959 24.2269 39.7545 26.5816C33.3932 29.8123 27.3012 34.8989 25.8012 50.1189C25.7839 50.2923 25.7185 50.4576 25.6132 50.5949C24.1919 52.4536 20.4119 57.3923 21.3292 61.9816C24.4665 77.6709 44.4812 75.0362 55.2385 73.6176C57.5825 73.3096 59.4305 73.0669 60.6665 73.0669Z" fill="#0E7C3E"/>
<path d="M39.4172 31.1052C42.3292 29.4305 46.0439 28.7212 50.7786 29.7225L39.4172 31.1052Z" fill="#0E7C3E"/>
<path d="M39.4171 31.4386C39.3024 31.4386 39.1891 31.3786 39.1278 31.2719C39.0371 31.1119 39.0918 30.9093 39.2504 30.8159C42.5198 28.9373 46.4211 28.4559 50.8464 29.3973C51.0264 29.4346 51.1424 29.6119 51.1024 29.7919C51.0651 29.9706 50.8957 30.0946 50.7077 30.0479C46.4451 29.1493 42.7038 29.5999 39.5824 31.3946C39.5291 31.4239 39.4731 31.4386 39.4171 31.4386Z" fill="#472B29"/>
<path d="M28.9438 52.3891C28.9438 52.3891 29.6838 40.0145 36.4545 33.3691L28.9438 52.3891Z" fill="#0E7C3E"/>
<path d="M28.9438 52.7225C28.9371 52.7225 28.9304 52.7225 28.9238 52.7225C28.7398 52.7105 28.5998 52.5532 28.6104 52.3692C28.6184 52.2438 29.4384 39.7878 36.2211 33.1305C36.3531 33.0012 36.5638 33.0038 36.6931 33.1358C36.8224 33.2678 36.8198 33.4785 36.6878 33.6078C30.0904 40.0825 29.2838 52.2865 29.2771 52.4092C29.2651 52.5852 29.1198 52.7225 28.9438 52.7225Z" fill="#472B29"/>
<path d="M70.2241 31.3118C72.8015 32.3878 75.7321 34.0224 78.5828 36.4998L70.2241 31.3118Z" fill="#8889B9"/>
<path d="M78.5841 36.8333C78.5054 36.8333 78.4294 36.8053 78.3654 36.7507C75.8987 34.608 73.116 32.8813 70.096 31.6187C69.9267 31.548 69.8454 31.3533 69.9174 31.1827C69.9894 31.012 70.18 30.932 70.3534 31.004C73.4387 32.2933 76.2814 34.0573 78.8027 36.248C78.9414 36.3693 78.956 36.5787 78.8347 36.7187C78.7694 36.7947 78.6761 36.8333 78.5841 36.8333Z" fill="#472B29"/>
<path d="M62.2495 29.2505C62.2495 29.2505 64.1548 29.3438 66.9975 30.1718L62.2495 29.2505Z" fill="#8889B9"/>
<path d="M66.9988 30.5056C66.9681 30.5056 66.9361 30.5016 66.9054 30.4923C64.1414 29.6869 62.2534 29.5829 62.2334 29.5829C62.0494 29.5736 61.9081 29.4163 61.9174 29.2323C61.9281 29.0483 62.0441 28.9149 62.2681 28.9163C62.3481 28.9203 64.2454 29.0216 67.0934 29.8509C67.2694 29.9029 67.3708 30.0883 67.3201 30.2656C67.2761 30.4109 67.1428 30.5056 66.9988 30.5056Z" fill="#472B29"/>
<rect x="11.8787" y="21.1521" width="15" height="100.095" transform="rotate(-45 11.8787 21.1521)" fill="#B8DD8E" stroke="white" stroke-width="3"/>
<circle cx="52" cy="52" r="49" stroke="#B8DD8E" stroke-width="6"/>
</svg>
