<svg width="92" height="92" viewBox="0 0 92 92" fill="none" xmlns="http://www.w3.org/2000/svg">
<path d="M18.3999 75.3249C17.9399 75.3249 17.4799 75.0949 17.1349 74.8649C16.4449 74.1749 16.4449 73.1399 17.1349 72.4499L44.7349 44.8499C45.0799 44.5049 45.5399 44.3899 45.9999 44.3899C46.4599 44.3899 46.9199 44.6199 47.2649 44.8499C47.9549 45.5399 47.9549 46.5749 47.2649 47.2649L19.6649 74.8649C19.3199 75.0949 18.8599 75.3249 18.3999 75.3249Z" fill="#86BA8A"/>
<path d="M46.0001 44.85C46.3451 44.85 46.5751 44.965 46.8051 45.195C47.2651 45.655 47.2651 46.345 46.8051 46.805L19.2051 74.4049C18.9751 74.6349 18.7451 74.7499 18.4001 74.7499C18.0551 74.7499 17.8251 74.6349 17.5951 74.4049C17.1351 73.9449 17.1351 73.2549 17.5951 72.7949L45.1951 45.195C45.4251 44.965 45.6551 44.85 46.0001 44.85ZM46.0001 43.7C45.4251 43.7 44.8501 43.9299 44.3901 44.3899L16.7901 71.9899C15.8701 72.9099 15.8701 74.2899 16.7901 75.2099C17.2501 75.6699 17.8251 75.8999 18.4001 75.8999C18.9751 75.8999 19.5501 75.6699 20.0101 75.2099L47.6101 47.61C48.5301 46.69 48.5301 45.3099 47.6101 44.3899C47.1501 43.9299 46.5751 43.7 46.0001 43.7Z" fill="#5E9C76"/>
<path d="M74.06 75.7849C73.6 75.7849 73.14 75.5549 72.795 75.3249L44.735 47.2649C44.045 46.5749 44.045 45.5399 44.735 44.8499C45.08 44.5049 45.54 44.3899 46 44.3899C46.46 44.3899 46.92 44.6199 47.265 44.8499L75.325 72.9099C76.015 73.5999 76.015 74.6349 75.325 75.3249C74.98 75.6699 74.52 75.7849 74.06 75.7849Z" fill="#86BA8A"/>
<path d="M46 44.85C46.345 44.85 46.575 44.965 46.805 45.195L74.865 73.2549C75.325 73.7149 75.325 74.4049 74.865 74.8649C74.635 75.0949 74.405 75.2099 74.06 75.2099C73.715 75.2099 73.485 75.0949 73.255 74.8649L45.195 46.805C44.735 46.345 44.735 45.655 45.195 45.195C45.425 44.965 45.655 44.85 46 44.85ZM46 43.7C45.425 43.7 44.85 43.9299 44.39 44.3899C43.47 45.3099 43.47 46.69 44.39 47.61L72.45 75.67C72.91 76.13 73.485 76.3599 74.06 76.3599C74.635 76.3599 75.21 76.13 75.67 75.67C76.59 74.75 76.59 73.3699 75.67 72.4499L47.61 44.3899C47.15 43.9299 46.575 43.7 46 43.7Z" fill="#5E9C76"/>
<path d="M45.1631 44.3977L71.916 17.6439L74.3556 20.0833L47.6026 46.8372L45.1631 44.3977Z" fill="#86BA8A"/>
<path d="M71.9899 18.4L73.5999 20.01L47.6099 46L45.9999 44.39L71.9899 18.4ZM71.9899 16.79L44.3899 44.39L47.6099 47.61L75.2099 20.01L71.9899 16.79Z" fill="#5E9C76"/>
<path d="M74.1748 23.575C70.9548 23.575 68.4248 21.045 68.4248 17.825C68.4248 14.605 70.9548 12.075 74.1748 12.075C77.3948 12.075 79.9248 14.605 79.9248 17.825C79.9248 21.045 77.3948 23.575 74.1748 23.575Z" fill="#B8DD8E"/>
<path d="M74.1751 12.65C77.0501 12.65 79.3501 14.95 79.3501 17.825C79.3501 20.7 77.0501 23 74.1751 23C71.3001 23 69.0001 20.7 69.0001 17.825C69.0001 14.95 71.3001 12.65 74.1751 12.65ZM74.1751 11.5C70.7251 11.5 67.8501 14.375 67.8501 17.825C67.8501 21.275 70.7251 24.15 74.1751 24.15C77.6251 24.15 80.5001 21.275 80.5001 17.825C80.5001 14.375 77.6251 11.5 74.1751 11.5Z" fill="#5E9C76"/>
<path d="M17.0952 19.5117L19.5347 17.0722L46.7765 44.313L44.337 46.7525L17.0952 19.5117Z" fill="#86BA8A"/>
<path d="M19.5501 17.9401L46.0001 44.3901L44.3901 46.0001L17.9401 19.5501L19.5501 17.9401ZM19.5501 16.3301L16.3301 19.5501L44.3901 47.6101L47.6101 44.3901L19.5501 16.3301Z" fill="#5E9C76"/>
<path d="M45.9999 70.3799C32.5449 70.3799 21.6199 59.4549 21.6199 45.9999C21.6199 32.5449 32.5449 21.6199 45.9999 21.6199C59.4549 21.6199 70.3799 32.5449 70.3799 45.9999C70.3799 59.4549 59.4549 70.3799 45.9999 70.3799Z" fill="#B8DD8E"/>
<path d="M45.9999 22.1949C59.1099 22.1949 69.8049 32.8899 69.8049 45.9999C69.8049 59.1099 59.1099 69.8049 45.9999 69.8049C32.8899 69.8049 22.1949 59.1099 22.1949 45.9999C22.1949 32.8899 32.8899 22.1949 45.9999 22.1949ZM45.9999 21.0449C32.1999 21.0449 21.0449 32.1999 21.0449 45.9999C21.0449 59.7999 32.1999 70.9549 45.9999 70.9549C59.7999 70.9549 70.9549 59.7999 70.9549 45.9999C70.9549 32.1999 59.7999 21.0449 45.9999 21.0449Z" fill="#5E9C76"/>
<path d="M17.825 23.575C14.605 23.575 12.075 21.045 12.075 17.825C12.075 14.605 14.605 12.075 17.825 12.075C21.045 12.075 23.575 14.605 23.575 17.825C23.575 21.045 21.045 23.575 17.825 23.575Z" fill="#B8DD8E"/>
<path d="M17.825 12.65C20.7 12.65 23 14.95 23 17.825C23 20.7 20.7 23 17.825 23C14.95 23 12.65 20.7 12.65 17.825C12.65 14.95 14.95 12.65 17.825 12.65ZM17.825 11.5C14.375 11.5 11.5 14.375 11.5 17.825C11.5 21.275 14.375 24.15 17.825 24.15C21.275 24.15 24.15 21.275 24.15 17.825C24.15 14.375 21.275 11.5 17.825 11.5Z" fill="#5E9C76"/>
<path d="M45.9999 29.3251C45.0799 29.3251 44.2749 28.5201 44.2749 27.6001V9.2001C44.2749 8.2801 45.0799 7.4751 45.9999 7.4751C46.9199 7.4751 47.7249 8.2801 47.7249 9.2001V27.6001C47.7249 28.5201 46.9199 29.3251 45.9999 29.3251Z" fill="#86BA8A"/>
<path d="M45.9999 8.0499C46.6899 8.0499 47.1499 8.5099 47.1499 9.1999V27.5999C47.1499 28.2899 46.6899 28.7499 45.9999 28.7499C45.3099 28.7499 44.8499 28.2899 44.8499 27.5999V9.1999C44.8499 8.5099 45.3099 8.0499 45.9999 8.0499ZM45.9999 6.8999C44.7349 6.8999 43.7 7.9349 43.7 9.1999V27.5999C43.7 28.8649 44.7349 29.8999 45.9999 29.8999C47.2649 29.8999 48.2999 28.8649 48.2999 27.5999V9.1999C48.2999 7.9349 47.2649 6.8999 45.9999 6.8999Z" fill="#5E9C76"/>
<path d="M46.0001 15.525C42.5501 15.525 39.675 12.65 39.675 9.2C39.675 5.75 42.5501 2.875 46.0001 2.875C49.4501 2.875 52.3251 5.75 52.3251 9.2C52.3251 12.65 49.4501 15.525 46.0001 15.525Z" fill="#B8DD8E"/>
<path d="M46.0001 3.45005C49.2201 3.45005 51.7501 5.98005 51.7501 9.20005C51.7501 12.42 49.2201 14.95 46.0001 14.95C42.7801 14.95 40.2501 12.42 40.2501 9.20005C40.2501 5.98005 42.7801 3.45005 46.0001 3.45005ZM46.0001 2.30005C42.2051 2.30005 39.1001 5.40505 39.1001 9.20005C39.1001 12.995 42.2051 16.1 46.0001 16.1C49.7951 16.1 52.9001 12.995 52.9001 9.20005C52.9001 5.40505 49.7951 2.30005 46.0001 2.30005Z" fill="#5E9C76"/>
<path d="M46.0001 52.3251C42.5501 52.3251 39.675 49.4501 39.675 46.0001C39.675 42.5501 42.5501 39.675 46.0001 39.675C49.4501 39.675 52.3251 42.5501 52.3251 46.0001C52.3251 49.4501 49.4501 52.3251 46.0001 52.3251Z" fill="#B8DD8E"/>
<path d="M46.0001 40.2501C49.2201 40.2501 51.7501 42.7801 51.7501 46.0001C51.7501 49.2201 49.2201 51.7501 46.0001 51.7501C42.7801 51.7501 40.2501 49.2201 40.2501 46.0001C40.2501 42.7801 42.7801 40.2501 46.0001 40.2501ZM46.0001 39.1001C42.2051 39.1001 39.1001 42.2051 39.1001 46.0001C39.1001 49.7951 42.2051 52.9001 46.0001 52.9001C49.7951 52.9001 52.9001 49.7951 52.9001 46.0001C52.9001 42.2051 49.7951 39.1001 46.0001 39.1001Z" fill="#5E9C76"/>
<path d="M74.1753 79.9253C70.9553 79.9253 68.4253 77.3953 68.4253 74.1753C68.4253 70.9553 70.9553 68.4253 74.1753 68.4253C77.3953 68.4253 79.9253 70.9553 79.9253 74.1753C79.9253 77.3953 77.3953 79.9253 74.1753 79.9253Z" fill="#B8DD8E"/>
<path d="M74.1751 69.0001C77.0501 69.0001 79.3501 71.3001 79.3501 74.1751C79.3501 77.0501 77.0501 79.3501 74.1751 79.3501C71.3001 79.3501 69.0001 77.0501 69.0001 74.1751C69.0001 71.3001 71.3001 69.0001 74.1751 69.0001ZM74.1751 67.8501C70.7251 67.8501 67.8501 70.7251 67.8501 74.1751C67.8501 77.6251 70.7251 80.5001 74.1751 80.5001C77.6251 80.5001 80.5001 77.6251 80.5001 74.1751C80.5001 70.7251 77.6251 67.8501 74.1751 67.8501Z" fill="#5E9C76"/>
<path d="M45.9999 84.5251C45.0799 84.5251 44.2749 83.7201 44.2749 82.8001V64.4C44.2749 63.48 45.0799 62.675 45.9999 62.675C46.9199 62.675 47.7249 63.48 47.7249 64.4V82.8001C47.7249 83.7201 46.9199 84.5251 45.9999 84.5251Z" fill="#86BA8A"/>
<path d="M45.9999 63.2501C46.6899 63.2501 47.1499 63.7101 47.1499 64.4001V82.8001C47.1499 83.4901 46.6899 83.9501 45.9999 83.9501C45.3099 83.9501 44.8499 83.4901 44.8499 82.8001V64.4001C44.8499 63.7101 45.3099 63.2501 45.9999 63.2501ZM45.9999 62.1001C44.7349 62.1001 43.7 63.1351 43.7 64.4001V82.8001C43.7 84.0651 44.7349 85.1001 45.9999 85.1001C47.2649 85.1001 48.2999 84.0651 48.2999 82.8001V64.4001C48.2999 63.1351 47.2649 62.1001 45.9999 62.1001Z" fill="#5E9C76"/>
<path d="M46.0001 89.1249C42.5501 89.1249 39.675 86.2499 39.675 82.7999C39.675 79.3499 42.5501 76.4749 46.0001 76.4749C49.4501 76.4749 52.3251 79.3499 52.3251 82.7999C52.3251 86.2499 49.4501 89.1249 46.0001 89.1249Z" fill="#B8DD8E"/>
<path d="M46.0001 77.0499C49.2201 77.0499 51.7501 79.5799 51.7501 82.7999C51.7501 86.0199 49.2201 88.5499 46.0001 88.5499C42.7801 88.5499 40.2501 86.0199 40.2501 82.7999C40.2501 79.5799 42.7801 77.0499 46.0001 77.0499ZM46.0001 75.8999C42.2051 75.8999 39.1001 79.0049 39.1001 82.7999C39.1001 86.5949 42.2051 89.6999 46.0001 89.6999C49.7951 89.6999 52.9001 86.5949 52.9001 82.7999C52.9001 79.0049 49.7951 75.8999 46.0001 75.8999Z" fill="#5E9C76"/>
<path d="M64.4 47.7249C63.48 47.7249 62.675 46.9199 62.675 45.9999C62.675 45.0799 63.48 44.2749 64.4 44.2749H82.8001C83.7201 44.2749 84.5251 45.0799 84.5251 45.9999C84.5251 46.9199 83.7201 47.7249 82.8001 47.7249H64.4Z" fill="#86BA8A"/>
<path d="M82.8001 44.8499C83.4901 44.8499 83.9501 45.3099 83.9501 45.9999C83.9501 46.6899 83.4901 47.1499 82.8001 47.1499H64.4001C63.7101 47.1499 63.2501 46.6899 63.2501 45.9999C63.2501 45.3099 63.7101 44.8499 64.4001 44.8499H82.8001ZM82.8001 43.7H64.4001C63.1351 43.7 62.1001 44.7349 62.1001 45.9999C62.1001 47.2649 63.1351 48.2999 64.4001 48.2999H82.8001C84.0651 48.2999 85.1001 47.2649 85.1001 45.9999C85.1001 44.7349 84.0651 43.7 82.8001 43.7Z" fill="#5E9C76"/>
<path d="M82.7999 52.3251C79.3499 52.3251 76.4749 49.4501 76.4749 46.0001C76.4749 42.5501 79.3499 39.675 82.7999 39.675C86.2499 39.675 89.1249 42.5501 89.1249 46.0001C89.1249 49.4501 86.2499 52.3251 82.7999 52.3251Z" fill="#B8DD8E"/>
<path d="M82.7999 40.2501C86.0199 40.2501 88.5499 42.7801 88.5499 46.0001C88.5499 49.2201 86.0199 51.7501 82.7999 51.7501C79.5799 51.7501 77.0499 49.2201 77.0499 46.0001C77.0499 42.7801 79.5799 40.2501 82.7999 40.2501ZM82.7999 39.1001C79.0049 39.1001 75.8999 42.2051 75.8999 46.0001C75.8999 49.7951 79.0049 52.9001 82.7999 52.9001C86.5949 52.9001 89.6999 49.7951 89.6999 46.0001C89.6999 42.2051 86.5949 39.1001 82.7999 39.1001Z" fill="#5E9C76"/>
<path d="M6.47925 7.2937L7.29241 6.48051L85.521 84.7064L84.7078 85.5195L6.47925 7.2937Z" fill="#36404D"/>
<path d="M9.19985 47.7249C8.27985 47.7249 7.47485 46.9199 7.47485 45.9999C7.47485 45.0799 8.27985 44.2749 9.19985 44.2749H27.5999C28.5199 44.2749 29.3249 45.0799 29.3249 45.9999C29.3249 46.9199 28.5199 47.7249 27.5999 47.7249H9.19985Z" fill="#86BA8A"/>
<path d="M27.5999 44.8499C28.2899 44.8499 28.7499 45.3099 28.7499 45.9999C28.7499 46.6899 28.2899 47.1499 27.5999 47.1499H9.1999C8.5099 47.1499 8.0499 46.6899 8.0499 45.9999C8.0499 45.3099 8.5099 44.8499 9.1999 44.8499H27.5999ZM27.5999 43.7H9.1999C7.9349 43.7 6.8999 44.7349 6.8999 45.9999C6.8999 47.2649 7.9349 48.2999 9.1999 48.2999H27.5999C28.8649 48.2999 29.8999 47.2649 29.8999 45.9999C29.8999 44.7349 28.8649 43.7 27.5999 43.7Z" fill="#5E9C76"/>
<path d="M9.2 52.3251C5.75 52.3251 2.875 49.4501 2.875 46.0001C2.875 42.5501 5.75 39.675 9.2 39.675C12.65 39.675 15.525 42.5501 15.525 46.0001C15.525 49.4501 12.65 52.3251 9.2 52.3251Z" fill="#B8DD8E"/>
<path d="M9.20005 40.2501C12.42 40.2501 14.95 42.7801 14.95 46.0001C14.95 49.2201 12.42 51.7501 9.20005 51.7501C5.98005 51.7501 3.45005 49.2201 3.45005 46.0001C3.45005 42.7801 5.98005 40.2501 9.20005 40.2501ZM9.20005 39.1001C5.40505 39.1001 2.30005 42.2051 2.30005 46.0001C2.30005 49.7951 5.40505 52.9001 9.20005 52.9001C12.995 52.9001 16.1 49.7951 16.1 46.0001C16.1 42.2051 12.995 39.1001 9.20005 39.1001Z" fill="#5E9C76"/>
<path d="M17.825 79.9253C14.605 79.9253 12.075 77.3953 12.075 74.1753C12.075 70.9553 14.605 68.4253 17.825 68.4253C21.045 68.4253 23.575 70.9553 23.575 74.1753C23.575 77.3953 21.045 79.9253 17.825 79.9253Z" fill="#B8DD8E"/>
<path d="M17.825 69.0001C20.7 69.0001 23 71.3001 23 74.1751C23 77.0501 20.7 79.3501 17.825 79.3501C14.95 79.3501 12.65 77.0501 12.65 74.1751C12.65 71.3001 14.95 69.0001 17.825 69.0001ZM17.825 67.8501C14.375 67.8501 11.5 70.7251 11.5 74.1751C11.5 77.6251 14.375 80.5001 17.825 80.5001C21.275 80.5001 24.15 77.6251 24.15 74.1751C24.15 70.7251 21.275 67.8501 17.825 67.8501Z" fill="#5E9C76"/>
</svg>
