<svg width="104" height="104" viewBox="0 0 104 104" fill="none" xmlns="http://www.w3.org/2000/svg">
<path d="M52.4779 84.6925C35.3345 78.4267 26.627 67.4616 26.627 51.9815C26.627 39.542 39.598 34.0134 52.4779 34.0134C65.3577 34.0134 78.3288 39.542 78.3288 51.9815C78.3288 67.4616 69.6212 78.4267 52.4779 84.6925Z" fill="#B8DD8E"/>
<path d="M66.2502 48.7207C62.945 48.7207 60.2664 51.4187 60.2664 54.746C60.2664 58.0742 62.9459 60.7713 66.2502 60.7713C69.5554 60.7713 72.234 58.0733 72.234 54.746C72.234 51.4177 69.5554 48.7207 66.2502 48.7207ZM60.7603 65.8032C58.7387 65.8032 57.1003 67.4535 57.1003 69.489C57.1003 71.5244 58.7396 73.1747 60.7603 73.1747C62.781 73.1747 64.4202 71.5244 64.4202 69.489C64.4202 67.4535 62.781 65.8032 60.7603 65.8032Z" fill="#EDDC67"/>
<path d="M38.7987 49.2175C35.7663 49.2175 33.3079 51.6925 33.3079 54.7462C33.3079 57.7998 35.7663 60.2748 38.7987 60.2748C41.8312 60.2748 44.2895 57.7998 44.2895 54.7462C44.2895 51.6925 41.8312 49.2175 38.7987 49.2175ZM44.2895 65.8034C42.2679 65.8034 40.6296 67.4537 40.6296 69.4892C40.6296 71.5246 42.2688 73.1749 44.2895 73.1749C46.3103 73.1749 47.9495 71.5246 47.9495 69.4892C47.9495 67.4537 46.3112 65.8034 44.2895 65.8034Z" fill="#EDDC67"/>
<path d="M60.7586 73.6361C58.4863 73.6361 56.637 71.7758 56.637 69.4897C56.637 67.2036 58.4854 65.3432 60.7586 65.3432C63.0308 65.3432 64.8792 67.2036 64.8792 69.4897C64.8792 71.7758 63.0308 73.6361 60.7586 73.6361ZM60.7586 66.2646C58.994 66.2646 57.5584 67.7113 57.5584 69.4897C57.5584 71.268 58.994 72.7147 60.7586 72.7147C62.5231 72.7147 63.9578 71.268 63.9578 69.4897C63.9578 67.7113 62.5222 66.2646 60.7586 66.2646ZM66.2485 60.736C62.9672 60.736 60.2978 58.0491 60.2978 54.7467C60.2978 51.4442 62.9672 48.7573 66.2485 48.7573C67.7219 48.7573 69.1363 49.3037 70.23 50.2943C70.4189 50.4657 70.4327 50.7568 70.2623 50.9457C70.0909 51.1337 69.7997 51.1466 69.6108 50.978C68.6875 50.1404 67.4933 49.6788 66.2485 49.6788C63.4749 49.6788 61.2193 51.9519 61.2193 54.7467C61.2193 57.5414 63.4759 59.8146 66.2485 59.8146C66.5028 59.8146 66.7092 60.021 66.7092 60.2753C66.7092 60.5296 66.5037 60.736 66.2485 60.736ZM69.8393 59.3898C69.7112 59.3898 69.5832 59.3363 69.4919 59.2322C69.3242 59.0406 69.3445 58.7494 69.5362 58.5817C70.6437 57.6179 71.2786 56.22 71.2786 54.7467C71.2786 54.4924 71.485 54.2859 71.7393 54.2859C71.9936 54.2859 72.2 54.4924 72.2 54.7467C72.2 56.4863 71.45 58.1376 70.1425 59.2765C70.0549 59.352 69.9462 59.3898 69.8393 59.3898Z" fill="#1F212B"/>
<path d="M44.2893 73.6361C42.0171 73.6361 40.1677 71.7758 40.1677 69.4897C40.1677 67.2036 42.0161 65.3432 44.2893 65.3432C46.5616 65.3432 48.41 67.2036 48.41 69.4897C48.41 71.7758 46.5616 73.6361 44.2893 73.6361ZM44.2893 66.2646C42.5248 66.2646 41.0892 67.7113 41.0892 69.4897C41.0892 71.268 42.5248 72.7147 44.2893 72.7147C46.0539 72.7147 47.4886 71.268 47.4886 69.4897C47.4886 67.7113 46.053 66.2646 44.2893 66.2646ZM38.7985 60.736C35.5163 60.736 32.8469 58.0491 32.8469 54.7467C32.8469 51.4442 35.5163 48.7573 38.7985 48.7573C42.0797 48.7573 44.7491 51.4442 44.7491 54.7467C44.7491 58.0491 42.0797 60.736 38.7985 60.736ZM38.7985 49.6788C36.025 49.6788 33.7684 51.9519 33.7684 54.7467C33.7684 57.5414 36.025 59.8146 38.7985 59.8146C41.572 59.8146 43.8277 57.5414 43.8277 54.7467C43.8277 51.9519 41.572 49.6788 38.7985 49.6788Z" fill="#1F212B"/>
<path d="M42.9146 33.092V30.7884C42.9146 25.444 47.2158 21.1133 52.5233 21.1133C57.8308 21.1133 62.132 25.444 62.132 30.7884V33.092H42.9146Z" fill="#DABF94"/>
<path d="M42.9146 38.1602C42.9146 43.5045 47.2158 47.8352 52.5233 47.8352C57.8308 47.8352 62.132 43.5045 62.132 38.1602H42.9146Z" fill="#DABF94"/>
<path d="M52.5245 48.2967C46.9729 48.2967 42.4551 43.7494 42.4551 38.1609C42.4551 37.9066 42.6615 37.7002 42.9158 37.7002H62.1324C62.3867 37.7002 62.5931 37.9066 62.5931 38.1609C62.5931 43.7494 58.0762 48.2967 52.5245 48.2967ZM43.3876 38.6216C43.6262 43.4896 47.6336 47.3753 52.5245 47.3753C57.4155 47.3753 61.4219 43.4896 61.6606 38.6216H43.3876Z" fill="#1F212B"/>
<path d="M46.1178 41.8825C40.8103 41.8825 35.2283 41.6134 34.0387 39.9106C33.6729 39.4628 33.6729 38.8353 33.9475 38.1175C34.8625 35.6075 36.052 33.1869 37.5162 31.0353C40.0787 27.1809 44.2878 26.6428 47.9478 26.6428H57.0986C60.8507 26.6428 64.9686 27.1809 67.6223 31.0353C68.9953 33.1869 70.1848 35.5172 71.191 38.1175C71.4656 38.8344 71.4656 39.4619 71.0998 39.9106C69.819 41.6143 64.3282 41.8825 59.0207 41.8825H46.1178Z" fill="#DABF94"/>
<path d="M36.2356 41.129C36.1969 41.129 36.1582 41.1244 36.1186 41.1143C34.8258 40.777 33.9919 40.32 33.5699 39.7155C33.4243 39.5073 33.4741 39.2198 33.6832 39.0742C33.8915 38.9277 34.179 38.9784 34.3246 39.1876C34.5218 39.4704 35.035 39.8786 36.3517 40.2223C36.5978 40.2868 36.7452 40.5384 36.6807 40.7844C36.6272 40.9917 36.4402 41.129 36.2356 41.129Z" fill="#1F212B"/>
<path d="M58.9281 41.8803H46.0261C43.471 41.8803 41.5102 41.8168 39.8571 41.6813C39.6037 41.6601 39.4148 41.4381 39.4351 41.1837C39.4563 40.9303 39.6737 40.7442 39.9327 40.7617C41.5599 40.8962 43.4959 40.958 46.0261 40.958H58.929C61.7643 40.958 69.2952 40.958 70.6396 39.1741C70.7934 38.9714 71.0819 38.9299 71.2846 39.0829C71.4882 39.2367 71.5288 39.5252 71.3758 39.7279C70.2387 41.2372 66.5161 41.8803 58.9281 41.8803Z" fill="#1F212B"/>
<path d="M43.0957 28.1175C42.8911 28.1175 42.705 27.9802 42.6506 27.7729C42.5861 27.5269 42.7336 27.2744 42.9796 27.2108C44.8059 26.7335 46.6893 26.6782 47.9471 26.6782H57.0979C58.8504 26.6782 60.2473 26.8008 61.4931 27.0652C61.7428 27.1187 61.9013 27.3629 61.8488 27.6116C61.7963 27.8613 61.5521 28.0226 61.3024 27.9673C60.1211 27.7158 58.785 27.5997 57.0979 27.5997H47.9471C46.74 27.5997 44.9367 27.6522 43.2127 28.1028C43.174 28.1129 43.1344 28.1175 43.0957 28.1175Z" fill="#1F212B"/>
<path d="M52.4779 85.6152C52.371 85.6152 52.2642 85.5967 52.1619 85.559C34.6067 79.1421 25.7056 67.8453 25.7056 51.9827C25.7056 46.3463 28.2801 41.6064 33.1545 38.2533C33.1683 38.2081 33.184 38.163 33.2005 38.1169C34.1699 35.3609 35.3926 32.8445 36.831 30.6524C38.2731 28.4031 40.3076 26.9574 43.036 26.2506C44.7609 22.5548 48.4162 20.1931 52.477 20.1931C56.5304 20.1931 60.1839 22.5492 61.9116 26.2359C64.64 26.9316 66.7049 28.3792 68.2115 30.6487C69.6618 33.0057 70.845 35.4392 71.8447 38.1151C71.8714 38.1888 71.8954 38.2597 71.9166 38.3298C76.7164 41.6764 79.2494 46.3905 79.2494 51.9827C79.2494 67.8462 70.3483 79.143 52.7931 85.559C52.6917 85.5967 52.5848 85.6152 52.4779 85.6152ZM52.4779 22.036C49.0078 22.036 45.8952 24.1387 44.548 27.3914C44.4329 27.6687 44.1905 27.8724 43.8975 27.9378C41.4354 28.487 39.6294 29.7023 38.3781 31.6549C37.0162 33.73 35.8598 36.1119 34.9347 38.7426C34.896 38.8476 34.8766 38.9342 34.8564 39.0199C34.802 39.2457 34.6592 39.4622 34.4657 39.5912C29.876 42.6403 27.5494 46.8088 27.5494 51.9827C27.5494 66.8971 35.9354 77.5701 52.4789 83.7115C69.0224 77.5692 77.4084 66.8962 77.4084 51.9827C77.4084 46.8475 75.1167 42.7011 70.598 39.6594C70.4017 39.5267 70.2635 39.3231 70.2128 39.0918C70.1898 38.9831 70.1612 38.8725 70.1189 38.7573C69.1624 36.1966 68.0309 33.8682 66.6616 31.6411C65.3661 29.6904 63.5278 28.4667 61.0602 27.9277C60.7663 27.8632 60.5221 27.6586 60.406 27.3812C59.0542 24.1341 55.9435 22.036 52.4779 22.036Z" fill="#1F212B"/>
<path d="M44.6461 25.7578C39.8076 25.7578 38.7139 19.7206 38.6706 19.4635C38.584 18.9631 38.9203 18.4877 39.4206 18.4001C39.9182 18.3163 40.3983 18.6489 40.4858 19.1493C40.4941 19.1972 41.3612 23.9149 44.6461 23.9149C45.1547 23.9149 45.5675 24.3277 45.5675 24.8364C45.5675 25.345 45.1547 25.7578 44.6461 25.7578Z" fill="#1F212B"/>
<path d="M60.771 25.7572C60.2624 25.7572 59.8496 25.3444 59.8496 24.8357C59.8496 24.3271 60.2624 23.9143 60.771 23.9143C64.0735 23.9143 64.9221 19.1984 64.9313 19.1514C65.017 18.6501 65.4879 18.3074 65.9956 18.3995C66.4969 18.4852 66.8341 18.9616 66.7475 19.4638C66.7033 19.7199 65.6095 25.7572 60.771 25.7572Z" fill="#1F212B"/>
<path d="M34.9677 36.8143C34.6544 36.8143 34.3494 36.6549 34.1771 36.3674L30.1624 29.6768L22.5578 25.6501C22.1081 25.4124 21.9367 24.854 22.1744 24.4044C22.4122 23.9547 22.9706 23.7824 23.4202 24.021L31.2524 28.1675C31.4008 28.2458 31.5252 28.3638 31.6118 28.5075L35.7583 35.4183C36.02 35.8551 35.879 36.4208 35.4422 36.6825C35.293 36.7719 35.1289 36.8143 34.9677 36.8143Z" fill="#1F212B"/>
<path d="M69.9824 36.8139C69.8212 36.8139 69.6572 36.7716 69.5088 36.6822C69.0721 36.4205 68.9311 35.8547 69.1928 35.418L73.3392 28.5072C73.4258 28.3634 73.5502 28.2455 73.6986 28.1672L81.5308 24.0207C81.9814 23.783 82.5379 23.9553 82.7766 24.404C83.0143 24.8537 82.8429 25.4112 82.3933 25.6498L74.7886 29.6765L70.7739 36.367C70.6007 36.6545 70.2957 36.8139 69.9824 36.8139Z" fill="#1F212B"/>
<path d="M19.3049 55.7045C19.1667 55.7045 19.0257 55.6731 18.8939 55.6077C18.4387 55.3801 18.2545 54.8263 18.4821 54.3712L22.1678 46.9997C22.2682 46.7988 22.4378 46.6421 22.646 46.5583L27.1961 44.7154C27.6688 44.5247 28.2051 44.7523 28.3958 45.2231C28.5875 45.6949 28.3589 46.2321 27.8881 46.4228L23.6605 48.1349L20.1305 55.1949C19.9683 55.5183 19.6431 55.7045 19.3049 55.7045Z" fill="#1F212B"/>
<path d="M23.8814 85.1903C23.6446 85.1903 23.4087 85.1 23.229 84.9194C22.8697 84.5592 22.8706 83.9759 23.2318 83.6165L30.3637 76.5141V69.9866C30.3637 69.478 30.7765 69.0652 31.2852 69.0652C31.7938 69.0652 32.2066 69.478 32.2066 69.9866V76.8974C32.2066 77.1425 32.1089 77.3775 31.9357 77.5498L24.5319 84.9213C24.3523 85.101 24.1173 85.1903 23.8814 85.1903Z" fill="#1F212B"/>
<path d="M85.6506 55.7046C85.3124 55.7046 84.9872 55.5185 84.825 55.1951L81.2959 48.1369L77.014 46.4248C76.5413 46.235 76.3118 45.6997 76.5007 45.227C76.6905 44.7543 77.224 44.5257 77.6986 44.7137L82.3058 46.5566C82.5149 46.6404 82.6863 46.798 82.7877 46.9998L86.4734 54.3713C86.701 54.8265 86.5167 55.3803 86.0615 55.6079C85.9298 55.6733 85.7888 55.7046 85.6506 55.7046Z" fill="#1F212B"/>
<path d="M81.0429 85.1903C80.807 85.1903 80.5712 85.1 80.3915 84.9204L73.02 77.5489C72.8468 77.3766 72.75 77.1416 72.75 76.8974V69.9866C72.75 69.478 73.1628 69.0652 73.6714 69.0652C74.1801 69.0652 74.5929 69.478 74.5929 69.9866V76.5159L81.6944 83.6174C82.0547 83.9777 82.0547 84.5601 81.6944 84.9204C81.5147 85.1 81.2788 85.1903 81.0429 85.1903Z" fill="#1F212B"/>
<path d="M52.4778 60.771C51.9692 60.771 51.5564 60.3582 51.5564 59.8496V48.3316C51.5564 47.823 51.9692 47.4102 52.4778 47.4102C52.9865 47.4102 53.3993 47.823 53.3993 48.3316V59.8496C53.3993 60.3582 52.9865 60.771 52.4778 60.771Z" fill="black"/>
<rect x="10.9556" y="21.9231" width="15" height="100.095" transform="rotate(-45 10.9556 21.9231)" fill="#B8DD8E" stroke="white" stroke-width="3"/>
<circle cx="52" cy="52" r="49" stroke="#B8DD8E" stroke-width="6"/>
</svg>
