<svg width="92" height="92" viewBox="0 0 92 92" fill="none" xmlns="http://www.w3.org/2000/svg">
<path d="M47.7249 44.2749H4.0249V84.5249H47.7249V44.2749Z" fill="#B8DD8E"/>
<path d="M22.4249 41.9751H9.7749V44.2751H22.4249V41.9751Z" fill="#B0C1D4"/>
<path d="M41.975 41.9751H29.325V44.2751H41.975V41.9751Z" fill="#B0C1D4"/>
<path d="M43.125 58.075H8.625V79.9249H43.125V58.075Z" fill="#B0C1D4"/>
<path d="M35.075 5.17505H16.675V17.825H35.075V5.17505Z" fill="#B8DD8E"/>
<path d="M35.6501 14.9501H16.1001V4.6001H35.6501V14.9501ZM17.2501 13.8001H34.5001V5.7501H17.2501V13.8001Z" fill="#788B9C"/>
<path d="M47.7249 25.875H4.0249V30.475H47.7249V25.875Z" fill="#C5D4DE"/>
<path d="M47.7249 25.875H4.0249L16.6749 14.375H35.0749L47.7249 25.875Z" fill="#B8DD8E"/>
<path d="M48.2999 31.05H3.44995V25.6209L16.453 13.8H35.298L48.2999 25.6209V31.05ZM4.59995 29.9H47.15V26.1292L34.853 14.95H16.8969L4.59995 26.1292V29.9Z" fill="#788B9C"/>
<path d="M48.2999 85.0999H3.44995V43.7H48.2999V85.0999ZM4.59995 83.95H47.15V44.85H4.59995V83.95Z" fill="#788B9C"/>
<path d="M43.7001 80.5H8.05005V57.5H43.7001V80.5ZM9.20005 79.35H42.5501V58.65H9.20005V79.35Z" fill="#66798F"/>
<path d="M47.1501 25.3H4.6001V26.45H47.1501V25.3Z" fill="#788B9C"/>
<path d="M47.1501 52.8999H4.6001V54.0499H47.1501V52.8999Z" fill="#788B9C"/>
<path d="M23 44.8499H9.19995V41.3999H23V44.8499ZM10.35 43.6999H21.85V42.5499H10.35V43.6999Z" fill="#788B9C"/>
<path d="M42.55 44.8499H28.75V41.3999H42.55V44.8499ZM29.9 43.6999H41.4V42.5499H29.9V43.6999Z" fill="#788B9C"/>
<path d="M9.77505 50.5999C10.7277 50.5999 11.5 49.8276 11.5 48.8749C11.5 47.9222 10.7277 47.1499 9.77505 47.1499C8.82236 47.1499 8.05005 47.9222 8.05005 48.8749C8.05005 49.8276 8.82236 50.5999 9.77505 50.5999Z" fill="#C74343"/>
<path d="M41.975 50.5999C42.9277 50.5999 43.7 49.8276 43.7 48.8749C43.7 47.9222 42.9277 47.1499 41.975 47.1499C41.0223 47.1499 40.25 47.9222 40.25 48.8749C40.25 49.8276 41.0223 50.5999 41.975 50.5999Z" fill="#66798F"/>
<path d="M36.225 50.5999C37.1777 50.5999 37.95 49.8276 37.95 48.8749C37.95 47.9222 37.1777 47.1499 36.225 47.1499C35.2723 47.1499 34.5 47.9222 34.5 48.8749C34.5 49.8276 35.2723 50.5999 36.225 50.5999Z" fill="#66798F"/>
<path d="M30.475 50.5999C31.4277 50.5999 32.2 49.8276 32.2 48.8749C32.2 47.9222 31.4277 47.1499 30.475 47.1499C29.5223 47.1499 28.75 47.9222 28.75 48.8749C28.75 49.8276 29.5223 50.5999 30.475 50.5999Z" fill="#66798F"/>
<path d="M24.725 50.5999C25.6777 50.5999 26.45 49.8276 26.45 48.8749C26.45 47.9222 25.6777 47.1499 24.725 47.1499C23.7723 47.1499 23 47.9222 23 48.8749C23 49.8276 23.7723 50.5999 24.725 50.5999Z" fill="#66798F"/>
<path d="M13.225 84.5249H8.625V87.9749H13.225V84.5249Z" fill="#B0C1D4"/>
<path d="M13.8 88.5499H8.05005V83.95H13.8V88.5499ZM9.20005 87.3999H12.65V85.0999H9.20005V87.3999Z" fill="#788B9C"/>
<path d="M43.1249 84.5249H38.5249V87.9749H43.1249V84.5249Z" fill="#B0C1D4"/>
<path d="M43.7 88.5499H37.95V83.95H43.7V88.5499ZM39.1 87.3999H42.55V85.0999H39.1V87.3999Z" fill="#788B9C"/>
<path d="M59.225 84.5249H54.625V87.9749H59.225V84.5249Z" fill="#B8DD8E"/>
<path d="M59.8 88.5499H54.05V83.95H59.8V88.5499ZM55.2 87.3999H58.65V85.0999H55.2V87.3999Z" fill="#967A44"/>
<path d="M84.5251 84.5249H79.925V87.9749H84.5251V84.5249Z" fill="#B8DD8E"/>
<path d="M85.1001 88.5499H79.3501V83.95H85.1001V88.5499ZM80.5001 87.3999H83.9501V85.0999H80.5001V87.3999Z" fill="#967A44"/>
<path d="M87.975 44.2749H51.175V84.5249H87.975V44.2749Z" fill="#B8DD8E"/>
<path d="M88.5501 85.0999H50.6001V43.7H88.5501V85.0999ZM51.7501 83.95H87.4001V44.85H51.7501V83.95Z" fill="#967A44"/>
<path d="M87.975 52.8999H51.175V54.0499H87.975V52.8999Z" fill="#967A44"/>
<path d="M70.15 43.7H69V52.8999H70.15V43.7Z" fill="#967A44"/>
<path d="M65.5499 48.3H55.2V49.4501H65.5499V48.3Z" fill="#967A44"/>
<path d="M55.2 57.5001V67.8501H56.35V57.5001H55.2Z" fill="#967A44"/>
<path d="M83.9501 48.3H73.6001V49.4501H83.9501V48.3Z" fill="#967A44"/>
</svg>
