<svg width="819" height="128" viewBox="0 0 819 128" fill="none" xmlns="http://www.w3.org/2000/svg">
<mask id="path-1-outside-1_3_687" maskUnits="userSpaceOnUse" x="0" y="0" width="819" height="128" fill="black">
<rect fill="white" width="819" height="128"/>
<path d="M27.4949 31.3401C28.4226 30.5282 29.0534 29.2549 29.3874 27.5204C29.7585 25.7858 29.944 23.9959 29.944 22.1506C29.944 21.0803 29.8327 20.0838 29.61 19.1612C29.4245 18.2017 29.0905 17.3713 28.6081 16.6701C28.1628 15.9319 27.5506 15.3599 26.7713 14.9539C25.992 14.5111 25.0458 14.2896 23.9326 14.2896C23.042 14.2896 22.2627 14.548 21.5948 15.0647C20.9639 15.5444 20.4259 16.3564 19.9806 17.5004C19.5353 18.6076 19.2013 20.0654 18.9787 21.8738C18.756 23.6822 18.6447 25.8965 18.6447 28.5168V43.7958C19.3869 43.1684 20.2032 42.6333 21.0938 42.1904C21.9844 41.7107 22.9863 41.3231 24.0995 41.0279C25.2499 40.6957 26.5301 40.4559 27.9402 40.3082C29.3503 40.1606 30.9645 40.0868 32.7827 40.0868C36.4564 40.0868 39.9445 40.7511 43.2471 42.0797C46.5497 43.3714 49.4255 45.2167 51.8746 47.6156C54.3609 50.0145 56.3276 52.9116 57.7748 56.3069C59.2591 59.7022 60.0012 63.4851 60.0012 67.6554C60.0012 71.0139 59.5745 74.2062 58.721 77.2325C57.8675 80.2219 56.7172 82.9898 55.27 85.5363C53.8228 88.0828 52.153 90.371 50.2605 92.4008C48.368 94.4306 46.3827 96.1652 44.3047 97.6045C42.2266 99.0438 40.1301 100.151 38.0149 100.926C35.8998 101.664 33.9145 102.033 32.0591 102.033H26.9383V93.508H32.2818C33.0982 93.508 34.0444 93.0282 35.1205 92.0686C36.1966 91.1091 37.2171 89.6329 38.1819 87.6399C39.1838 85.647 40.0187 83.1374 40.6867 80.1112C41.3546 77.0849 41.6886 73.505 41.6886 69.3716C41.6886 66.5667 41.5216 63.9649 41.1876 61.566C40.8537 59.1671 40.3156 57.1004 39.5734 55.3658C38.8313 53.5943 37.8665 52.2288 36.679 51.2693C35.5287 50.2728 34.1001 49.7746 32.3931 49.7746C30.649 49.7746 28.9606 50.0883 27.3279 50.7157C25.7323 51.3062 24.3036 52.1366 23.042 53.2068C21.8174 54.2771 20.8341 55.5503 20.0919 57.0266C19.3498 58.4659 18.9787 60.0528 18.9787 61.7874V101.535H1V28.1847C1 24.1988 1.55662 20.7297 2.66985 17.7772C3.78308 14.8248 5.39726 12.3705 7.5124 10.4145C9.62754 8.45852 12.2065 7.00074 15.2494 6.04119C18.2922 5.04473 21.7432 4.5465 25.6024 4.5465C28.905 4.5465 31.7994 4.91556 34.2856 5.65368C36.8089 6.39179 38.9055 7.42516 40.5754 8.75376C42.2452 10.0824 43.4883 11.6509 44.3047 13.4593C45.1581 15.2676 45.5849 17.2421 45.5849 19.3826C45.5849 21.3017 45.121 23.1101 44.1934 24.8078C43.3028 26.4686 42.0968 28.0186 40.5754 29.4579C39.0539 30.8603 37.3099 32.1336 35.3432 33.2777C33.4136 34.4218 31.4283 35.4182 29.3874 36.2671L27.4949 31.3401ZM129.634 101.314C129.634 105.521 128.836 109.23 127.24 112.441C125.682 115.651 123.585 118.327 120.951 120.468C118.353 122.608 115.366 124.214 111.989 125.284C108.649 126.391 105.198 126.945 101.636 126.945C97.2945 126.945 93.2312 126.336 89.4462 125.118C85.6983 123.937 82.4143 122.313 79.5941 120.246C76.811 118.18 74.6031 115.725 72.9704 112.884C71.3747 110.079 70.5769 107.071 70.5769 103.86C70.5769 100.834 71.1521 98.2688 72.3024 96.1652C73.4528 94.0616 75.0298 92.3085 77.0337 90.9061C79.0375 89.4668 81.3938 88.3227 84.1027 87.4739C86.8115 86.625 89.743 85.9238 92.8972 85.3702L94.8453 91.0722C93.8434 91.8472 92.99 92.6776 92.2849 93.5633C91.5799 94.4491 91.0047 95.4455 90.5594 96.5527C90.1141 97.6599 89.7802 98.8962 89.5575 100.262C89.372 101.627 89.2792 103.159 89.2792 104.857C89.2792 107.366 89.5204 109.414 90.0028 111.001C90.4852 112.625 91.2459 113.898 92.2849 114.821C93.3239 115.744 94.6227 116.39 96.1812 116.759C97.7397 117.128 99.6137 117.312 101.803 117.312C103.362 117.312 104.697 116.98 105.811 116.316C106.961 115.651 107.907 114.692 108.649 113.437C109.392 112.219 109.93 110.743 110.264 109.008C110.635 107.274 110.82 105.336 110.82 103.196V97.7152C110.82 92.5484 110.078 88.6918 108.594 86.1453C107.109 83.5619 104.79 82.2701 101.636 82.2701H96.6265V73.8003H102.137C103.176 73.8003 104.196 73.6157 105.198 73.2467C106.237 72.8407 107.147 72.1949 107.926 71.3091C108.742 70.4234 109.392 69.2608 109.874 67.8215C110.356 66.3822 110.598 64.6107 110.598 62.5071C110.598 59.5915 110.412 57.2111 110.041 55.3658C109.707 53.4836 109.15 52.0258 108.371 50.9925C107.592 49.9591 106.571 49.2579 105.31 48.8888C104.048 48.4829 102.527 48.2799 100.745 48.2799C99.1127 48.2799 97.5913 48.4275 96.1812 48.7228C94.8082 48.9811 93.6022 49.4793 92.5632 50.2174C91.5242 50.9187 90.7078 51.9151 90.1141 53.2068C89.5575 54.4616 89.2792 56.0855 89.2792 58.0784C89.2792 58.7796 89.7802 59.4993 90.7821 60.2374C91.784 60.9755 93.1755 61.5844 94.9567 62.0642L90.4481 74.0771C87.8134 73.8187 85.5128 73.0621 83.5461 71.8074C81.5793 70.5526 79.9466 69.1317 78.6478 67.5447C77.3491 65.9578 76.3843 64.3524 75.7534 62.7285C75.1226 61.1047 74.8072 59.7576 74.8072 58.6873C74.8072 55.6241 75.438 52.8562 76.6997 50.3835C77.9985 47.8739 79.7982 45.7334 82.0989 43.9619C84.3995 42.1904 87.1455 40.8249 90.3368 39.8654C93.528 38.9058 97.0533 38.426 100.912 38.426C104.289 38.426 107.629 38.8136 110.932 39.5886C114.271 40.3636 117.258 41.563 119.893 43.1869C122.528 44.8107 124.661 46.859 126.294 49.3317C127.927 51.8044 128.743 54.72 128.743 58.0784C128.743 60.8094 128.335 63.2267 127.519 65.3304C126.702 67.3971 125.626 69.2055 124.29 70.7555C122.954 72.3056 121.433 73.6342 119.726 74.7414C118.019 75.8485 116.275 76.7712 114.494 77.5093C116.275 78.4319 118.056 79.5391 119.837 80.8308C121.656 82.0856 123.288 83.5249 124.736 85.1488C126.183 86.7727 127.352 88.5995 128.242 90.6293C129.17 92.6222 129.634 94.8181 129.634 97.217V101.314ZM198.654 101.037C198.654 105.096 198.023 108.713 196.762 111.887C195.537 115.098 193.719 117.829 191.307 120.08C188.895 122.331 185.871 124.048 182.234 125.229C178.635 126.41 174.478 127 169.766 127C166.76 127 163.921 126.649 161.25 125.948C158.615 125.247 156.184 124.287 153.958 123.07C151.731 121.852 149.728 120.431 147.946 118.807C146.202 117.183 144.718 115.448 143.494 113.603C142.269 111.758 141.323 109.857 140.655 107.901C140.024 105.945 139.709 104.026 139.709 102.144C139.709 99.782 140.08 97.6783 140.822 95.833C141.601 93.9508 142.603 92.3085 143.827 90.9061C145.089 89.5037 146.499 88.3043 148.058 87.3078C149.653 86.3113 151.286 85.481 152.956 84.8167C154.626 84.1523 156.259 83.6357 157.854 83.2666C159.487 82.8606 160.934 82.5838 162.196 82.4362L163.977 87.9721C163.383 88.4519 162.752 89.1162 162.084 89.965C161.454 90.7769 160.86 91.7734 160.303 92.9544C159.784 94.1354 159.339 95.5009 158.967 97.0509C158.633 98.601 158.466 100.336 158.466 102.255C158.466 107.458 159.32 111.278 161.027 113.714C162.771 116.15 165.591 117.368 169.487 117.368C173.347 117.368 176.074 116.187 177.67 113.825C179.265 111.5 180.063 108.049 180.063 103.473V57.9123C180.063 55.8825 179.803 54.2402 179.284 52.9854C178.801 51.6937 178.115 50.6972 177.224 49.996C176.334 49.2948 175.258 48.8335 173.996 48.612C172.734 48.3537 171.361 48.2245 169.877 48.2245C168.541 48.2245 167.298 48.4091 166.148 48.7781C164.997 49.1472 163.996 49.7192 163.142 50.4942C162.289 51.2324 161.602 52.1919 161.083 53.3729C160.6 54.5539 160.359 55.9563 160.359 57.5802C160.359 58.3921 160.47 59.1487 160.693 59.8499C160.916 60.5142 161.268 61.16 161.751 61.7874C162.27 62.4148 162.938 63.0238 163.754 63.6143C164.608 64.2048 165.628 64.8137 166.816 65.4411L160.248 77.3986C157.91 76.6236 155.813 75.5164 153.958 74.0771C152.103 72.6377 150.544 71.0692 149.282 69.3716C148.021 67.6739 147.056 65.9578 146.388 64.2232C145.72 62.4517 145.386 60.8648 145.386 59.4624C145.386 55.6241 146.091 52.3764 147.501 49.7192C148.948 47.0251 150.841 44.8477 153.179 43.1869C155.554 41.5261 158.281 40.3267 161.361 39.5886C164.441 38.8136 167.651 38.426 170.99 38.426C175.332 38.426 179.21 38.9243 182.624 39.9207C186.037 40.8803 188.932 42.3012 191.307 44.1833C193.682 46.0286 195.5 48.3168 196.762 51.0478C198.023 53.7789 198.654 56.9159 198.654 60.4588V101.037ZM253.87 69.2608C253.87 62.3964 253.017 57.4141 251.31 54.314C249.64 51.177 247.21 49.6085 244.018 49.6085C242.274 49.6085 240.604 49.996 239.009 50.771C237.413 51.5461 236.003 52.8193 234.778 54.5908C233.591 56.3254 232.645 58.5766 231.94 61.3446C231.235 64.1125 230.882 67.4894 230.882 71.4752C230.882 75.8301 231.123 79.3361 231.606 81.9934C232.088 84.6137 232.812 86.6435 233.777 88.0828C234.778 89.4852 236.003 90.4263 237.45 90.9061C238.897 91.349 240.586 91.5704 242.515 91.5704C245.966 91.5704 248.712 90.168 250.753 87.3632C252.831 84.5583 253.87 80.4802 253.87 75.1289V69.2608ZM272.74 69.1501C272.74 74.3539 271.923 78.9671 270.29 82.9898C268.695 86.9756 266.506 90.3525 263.722 93.1205C260.939 95.8515 257.674 97.9367 253.926 99.376C250.215 100.778 246.226 101.48 241.959 101.48C237.766 101.48 233.925 100.926 230.437 99.8189C226.986 98.6748 224.017 96.9956 221.531 94.7812C219.082 92.53 217.171 89.7436 215.798 86.4221C214.425 83.0636 213.738 79.1701 213.738 74.7414V25.9703C213.738 22.169 214.184 18.9213 215.074 16.2272C215.965 13.5331 217.282 11.3372 219.026 9.6395C220.807 7.90493 222.997 6.63168 225.594 5.81975C228.229 5.00782 231.272 4.60186 234.723 4.60186C237.172 4.60186 239.268 4.84175 241.013 5.32152C242.757 5.76439 244.259 6.26262 245.521 6.81621C246.783 7.33289 247.859 7.83112 248.749 8.31089C249.64 8.75376 250.419 8.9752 251.087 8.9752C252.015 8.9752 252.998 8.79067 254.037 8.42161C255.113 8.05255 256.227 7.55433 257.377 6.92693C258.527 6.29953 259.733 5.56141 260.995 4.71258C262.257 3.86374 263.593 2.95955 265.003 2L268.788 6.4287C267.934 7.97874 266.932 9.6026 265.782 11.3003C264.632 12.9979 263.314 14.5664 261.83 16.0058C260.383 17.4082 258.75 18.5707 256.932 19.4934C255.151 20.3791 253.202 20.822 251.087 20.822C249.64 20.822 248.304 20.6374 247.08 20.2684C245.855 19.8993 244.705 19.438 243.629 18.8844C242.59 18.3308 241.625 17.7219 240.734 17.0576C239.881 16.3933 239.083 15.7843 238.341 15.2307C237.636 14.6771 236.968 14.2158 236.337 13.8468C235.743 13.4777 235.205 13.2932 234.723 13.2932C233.981 13.2932 233.35 13.4777 232.83 13.8468C232.311 14.1789 231.884 14.751 231.55 15.5629C231.216 16.3379 230.975 17.3897 230.826 18.7183C230.678 20.0469 230.604 21.7077 230.604 23.7006L230.548 44.4601C231.661 43.6851 232.83 43.0208 234.055 42.4672C235.317 41.8767 236.56 41.397 237.784 41.0279C239.009 40.6219 240.178 40.3267 241.291 40.1422C242.404 39.9576 243.387 39.8654 244.241 39.8654C248.1 39.8654 251.755 40.4743 255.206 41.6922C258.657 42.8732 261.682 44.6816 264.279 47.1174C266.877 49.5162 268.936 52.561 270.457 56.2515C271.979 59.9052 272.74 64.2048 272.74 69.1501ZM366.863 69.3162C366.863 66.1423 366.548 63.3375 365.917 60.9017C365.286 58.4659 364.414 56.4361 363.301 54.8122C362.225 53.1515 360.945 51.9151 359.46 51.1032C357.976 50.2544 356.362 49.8299 354.618 49.8299C352.577 49.8299 350.907 50.2913 349.608 51.2139C348.347 52.1366 347.345 53.4467 346.602 55.1444C345.86 56.8051 345.341 58.8165 345.044 61.1785C344.784 63.5404 344.654 66.1423 344.654 68.9841C344.654 72.3056 344.821 75.3503 345.155 78.1182C345.489 80.8862 346.064 83.2666 346.881 85.2595C347.734 87.2524 348.866 88.8025 350.276 89.9097C351.723 91.0168 353.523 91.5704 355.675 91.5704C357.568 91.5704 359.201 91.349 360.574 90.9061C361.984 90.4263 363.152 89.4299 364.08 87.9167C365.008 86.3667 365.694 84.1339 366.14 81.2183C366.622 78.2659 366.863 74.2985 366.863 69.3162ZM384.619 74.4092C384.619 78.026 383.914 81.4767 382.504 84.7613C381.094 88.0459 379.09 90.9246 376.493 93.3973C373.932 95.8699 370.797 97.8444 367.086 99.3206C363.412 100.76 359.293 101.48 354.729 101.48C351.612 101.48 348.718 101.055 346.046 100.206C343.411 99.3206 341.018 98.1212 338.866 96.6081C336.713 95.058 334.802 93.2496 333.132 91.1829C331.5 89.1162 330.127 86.8834 329.013 84.4845C327.937 82.0856 327.102 79.576 326.509 76.9557C325.952 74.2985 325.674 71.6597 325.674 69.0394C325.674 64.9429 326.416 61.1416 327.9 57.6355C329.422 54.0926 331.481 51.0294 334.079 48.446C336.713 45.8257 339.793 43.7774 343.318 42.3012C346.881 40.788 350.703 40.0314 354.785 40.0314C357.011 40.0314 359.219 40.5297 361.408 41.5261C363.598 42.4857 365.527 43.6482 367.197 45.0137V18.8844C367.197 17.851 367.067 17.0391 366.808 16.4486C366.585 15.8212 366.251 15.3599 365.806 15.0647C365.36 14.7694 364.822 14.5849 364.192 14.5111C363.561 14.4373 362.837 14.4004 362.021 14.4004C361.019 14.4004 360.184 14.4742 359.516 14.6218C358.848 14.7694 358.31 15.12 357.902 15.6736C357.494 16.1903 357.197 16.9653 357.011 17.9987C356.863 18.9951 356.789 20.3606 356.789 22.0952V32.8902H345.545V22.0952C345.545 20.3606 345.415 18.9951 345.155 17.9987C344.896 16.9653 344.487 16.1903 343.931 15.6736C343.411 15.12 342.762 14.7694 341.983 14.6218C341.24 14.4742 340.368 14.4004 339.366 14.4004C337.697 14.4004 336.454 14.7694 335.637 15.5075C334.821 16.2087 334.413 17.3713 334.413 18.9951C334.413 20.619 334.487 21.966 334.635 23.0363C334.784 24.0697 334.988 24.9185 335.248 25.5828C335.544 26.2102 335.915 26.7084 336.361 27.0775C336.806 27.4097 337.326 27.6864 337.919 27.9079L335.192 35.0492C332.335 34.0158 329.923 32.8533 327.956 31.5616C325.989 30.233 324.394 28.8859 323.169 27.5204C321.944 26.118 321.054 24.734 320.497 23.3685C319.978 22.003 319.718 20.7297 319.718 19.5487C319.718 16.7439 320.2 14.3819 321.165 12.4628C322.167 10.5437 323.447 9.0121 325.006 7.86802C326.601 6.72394 328.401 5.91202 330.405 5.43224C332.446 4.91556 334.505 4.65722 336.583 4.65722C338.216 4.65722 339.738 4.89711 341.148 5.37688C342.595 5.85666 343.931 6.50251 345.155 7.31444C346.38 8.12637 347.493 9.04901 348.495 10.0824C349.497 11.1157 350.369 12.2045 351.111 13.3485C351.927 12.2783 352.855 11.2265 353.894 10.1931C354.97 9.12282 356.102 8.18172 357.289 7.3698C358.514 6.55787 359.757 5.91202 361.019 5.43224C362.318 4.91556 363.598 4.65722 364.859 4.65722C367.828 4.65722 370.518 4.97092 372.93 5.59832C375.379 6.22572 377.458 7.38825 379.164 9.08592C380.909 10.7467 382.244 13.0348 383.172 15.9504C384.137 18.866 384.619 22.5934 384.619 27.1329V74.4092ZM455.254 101.037C455.254 105.096 454.623 108.713 453.361 111.887C452.137 115.098 450.318 117.829 447.906 120.08C445.494 122.331 442.47 124.048 438.834 125.229C435.234 126.41 431.078 127 426.365 127C423.36 127 420.521 126.649 417.849 125.948C415.215 125.247 412.784 124.287 410.558 123.07C408.331 121.852 406.327 120.431 404.546 118.807C402.802 117.183 401.318 115.448 400.093 113.603C398.869 111.758 397.922 109.857 397.254 107.901C396.624 105.945 396.308 104.026 396.308 102.144C396.308 99.782 396.679 97.6783 397.421 95.833C398.201 93.9508 399.203 92.3085 400.427 90.9061C401.689 89.5037 403.099 88.3043 404.657 87.3078C406.253 86.3113 407.886 85.481 409.556 84.8167C411.226 84.1523 412.858 83.6357 414.454 83.2666C416.087 82.8606 417.534 82.5838 418.795 82.4362L420.577 87.9721C419.983 88.4519 419.352 89.1162 418.684 89.965C418.053 90.7769 417.46 91.7734 416.903 92.9544C416.383 94.1354 415.938 95.5009 415.567 97.0509C415.233 98.601 415.066 100.336 415.066 102.255C415.066 107.458 415.92 111.278 417.627 113.714C419.371 116.15 422.191 117.368 426.087 117.368C429.946 117.368 432.674 116.187 434.269 113.825C435.865 111.5 436.663 108.049 436.663 103.473V57.9123C436.663 55.8825 436.403 54.2402 435.884 52.9854C435.401 51.6937 434.715 50.6972 433.824 49.996C432.934 49.2948 431.857 48.8335 430.596 48.612C429.334 48.3537 427.961 48.2245 426.477 48.2245C425.141 48.2245 423.898 48.4091 422.747 48.7781C421.597 49.1472 420.595 49.7192 419.742 50.4942C418.888 51.2324 418.202 52.1919 417.682 53.3729C417.2 54.5539 416.959 55.9563 416.959 57.5802C416.959 58.3921 417.07 59.1487 417.293 59.8499C417.515 60.5142 417.868 61.16 418.35 61.7874C418.87 62.4148 419.538 63.0238 420.354 63.6143C421.207 64.2048 422.228 64.8137 423.415 65.4411L416.847 77.3986C414.51 76.6236 412.413 75.5164 410.558 74.0771C408.702 72.6377 407.144 71.0692 405.882 69.3716C404.62 67.6739 403.656 65.9578 402.988 64.2232C402.32 62.4517 401.986 60.8648 401.986 59.4624C401.986 55.6241 402.691 52.3764 404.101 49.7192C405.548 47.0251 407.441 44.8477 409.778 43.1869C412.153 41.5261 414.881 40.3267 417.961 39.5886C421.04 38.8136 424.25 38.426 427.59 38.426C431.932 38.426 435.809 38.9243 439.223 39.9207C442.637 40.8803 445.532 42.3012 447.906 44.1833C450.281 46.0286 452.1 48.3168 453.361 51.0478C454.623 53.7789 455.254 56.9159 455.254 60.4588V101.037ZM532.289 74.8521C532.289 78.9117 531.492 82.5838 529.896 85.8685C528.337 89.1531 526.222 91.9579 523.55 94.283C520.879 96.5712 517.78 98.3426 514.255 99.5974C510.767 100.852 507.093 101.48 503.234 101.48C499.226 101.48 495.534 100.76 492.157 99.3206C488.818 97.8444 485.923 95.8515 483.474 93.3419C481.062 90.8323 479.17 87.8983 477.797 84.5399C476.461 81.1445 475.793 77.5278 475.793 73.6895V18.8844C475.793 17.6296 475.756 16.6147 475.682 15.8397C475.607 15.0278 475.44 14.4004 475.181 13.9575C474.921 13.5146 474.568 13.2194 474.123 13.0717C473.678 12.9241 473.065 12.8503 472.286 12.8503C471.73 12.8503 471.266 12.9241 470.895 13.0717C470.561 13.2194 470.301 13.4962 470.115 13.9021C469.93 14.3081 469.8 14.8986 469.726 15.6736C469.689 16.4117 469.67 17.4082 469.67 18.663V27.4097H461.432V16.3379C461.432 14.751 461.711 13.2563 462.267 11.8539C462.824 10.4145 463.677 9.17818 464.828 8.14482C466.015 7.07455 467.518 6.24417 469.336 5.65368C471.192 5.02628 473.399 4.71258 475.96 4.71258C478.706 4.71258 481.174 5.11854 483.363 5.93047C485.552 6.70549 487.408 7.88648 488.929 9.47343C490.45 11.0235 491.619 12.961 492.436 15.2861C493.252 17.6112 493.66 20.3053 493.66 23.3685V69.3162C493.66 76.8819 494.402 82.4731 495.887 86.0899C497.408 89.7067 499.857 91.5151 503.234 91.5151C505.498 91.5151 507.353 91.3121 508.8 90.9061C510.247 90.5001 511.398 89.6698 512.251 88.415C513.105 87.1233 513.698 85.2964 514.032 82.9345C514.366 80.5725 514.533 77.417 514.533 73.4681C514.533 70.2573 514.236 67.6554 513.643 65.6625C513.086 63.6696 512.381 62.0458 511.528 60.791C510.674 59.4993 509.728 58.4474 508.689 57.6355C507.687 56.8236 506.759 55.9932 505.906 55.1444C505.052 54.2955 504.329 53.3175 503.735 52.2104C503.178 51.0663 502.9 49.5531 502.9 47.6709C502.9 46.4531 503.086 45.1983 503.457 43.9066C503.865 42.6148 504.588 41.3231 505.627 40.0314C506.704 38.7397 508.188 37.4665 510.08 36.2117C511.973 34.92 514.422 33.7205 517.428 32.6134L521.046 44.4048C519.042 44.4048 517.502 44.6447 516.426 45.1244C515.387 45.6042 514.867 46.2685 514.867 47.1174C514.867 48.9257 515.294 50.4758 516.148 51.7675C517.001 53.0223 518.077 54.2033 519.376 55.3105C520.675 56.3807 522.066 57.4694 523.55 58.5766C525.072 59.6838 526.482 60.9755 527.781 62.4517C529.08 63.8911 530.156 65.6072 531.009 67.6001C531.863 69.5561 532.289 71.9734 532.289 74.8521ZM600.085 76.7343C600.085 80.9784 599.269 84.6506 597.636 87.7507C596.003 90.8508 593.832 93.4157 591.124 95.4455C588.415 97.4753 585.298 98.9885 581.772 99.9849C578.284 100.981 574.685 101.48 570.974 101.48C567.486 101.48 564.146 100.981 560.955 99.9849C557.764 98.9885 554.962 97.5123 552.55 95.5562C550.138 93.5633 548.209 91.1091 546.761 88.1935C545.314 85.2411 544.591 81.8273 544.591 77.9522C544.591 75.664 544.887 73.4866 545.481 71.4198C546.075 69.3162 547.003 67.3787 548.264 65.6072C549.526 63.7988 551.159 62.138 553.162 60.6249C555.166 59.1118 557.578 57.8016 560.398 56.6944L565.297 69.6484C564.146 69.9436 563.126 70.3127 562.235 70.7555C561.382 71.1984 560.658 71.7704 560.064 72.4717C559.508 73.136 559.081 73.9479 558.784 74.9074C558.487 75.8301 558.339 76.9373 558.339 78.229C558.339 80.4433 558.691 82.3993 559.397 84.097C560.139 85.7578 561.085 87.1417 562.235 88.2489C563.423 89.3561 564.759 90.2049 566.243 90.7954C567.764 91.349 569.304 91.6258 570.863 91.6258C572.867 91.6258 574.518 91.2014 575.817 90.3525C577.153 89.5037 578.229 88.3227 579.045 86.8096C579.861 85.2595 580.437 83.4327 580.771 81.329C581.104 79.2254 581.271 76.9188 581.271 74.4092C581.271 72.0841 580.993 70.0174 580.437 68.209C579.88 66.3637 579.156 64.7399 578.266 63.3375C577.412 61.8981 576.448 60.6618 575.371 59.6284C574.332 58.5582 573.312 57.6171 572.31 56.8051C571.011 55.7718 569.731 54.6831 568.469 53.539C567.208 52.3949 566.076 51.1216 565.074 49.7192C564.072 48.2799 563.256 46.6929 562.625 44.9584C562.031 43.1869 561.734 41.1755 561.734 38.9243V33.942H576.54V38.8136C576.54 41.1017 576.8 43.0393 577.32 44.6262C577.876 46.2132 578.581 47.5787 579.435 48.7228C580.288 49.8299 581.271 50.8079 582.385 51.6568C583.498 52.4687 584.648 53.2437 585.836 53.9818C587.431 55.0152 589.064 56.2331 590.734 57.6355C592.404 59.0379 593.925 60.6802 595.298 62.5624C596.708 64.4077 597.859 66.5114 598.749 68.8733C599.64 71.1984 600.085 73.8187 600.085 76.7343ZM635.486 77.0111C635.486 81.6243 636.302 85.2042 637.935 87.7507C639.605 90.2603 642.017 91.5151 645.171 91.5151C647.657 91.5151 649.698 91.2936 651.294 90.8508C652.926 90.371 654.207 89.6513 655.134 88.6918C656.062 87.7322 656.711 86.5143 657.083 85.0381C657.454 83.5619 657.639 81.7904 657.639 79.7236V64.7768C657.639 62.6363 657.435 60.5511 657.027 58.5213C656.619 56.4914 656.006 54.7015 655.19 53.1515C654.374 51.5645 653.372 50.2913 652.184 49.3317C651.034 48.3722 649.68 47.8924 648.121 47.8924C646.488 47.8924 644.911 48.1876 643.39 48.7781C641.905 49.3686 640.57 50.199 639.382 51.2693C638.195 52.3395 637.248 53.6497 636.543 55.1997C635.838 56.7129 635.486 58.429 635.486 60.3481V77.0111ZM676.564 68.5412C676.564 74.5199 675.711 79.6129 674.004 83.8202C672.334 87.9906 670.052 91.3859 667.157 94.0062C664.3 96.6265 660.942 98.5272 657.083 99.7081C653.26 100.889 649.197 101.48 644.893 101.48C640.699 101.48 636.914 100.686 633.538 99.0992C630.198 97.5123 627.359 95.3533 625.021 92.6222C622.684 89.8912 620.884 86.6988 619.622 83.0452C618.361 79.3546 617.73 75.4057 617.73 71.1984V14.1236C617.73 13.3854 617.581 12.8872 617.285 12.6289C617.025 12.3705 616.394 12.2414 615.392 12.2414C614.427 12.2414 613.741 12.3705 613.333 12.6289C612.961 12.8872 612.776 13.4408 612.776 14.2896V25.0846H605.15V17.6665C605.15 13.0902 606.319 9.78713 608.657 7.75731C610.995 5.69058 614.817 4.65722 620.123 4.65722C622.498 4.65722 624.613 4.93401 626.469 5.4876C628.324 6.04119 629.883 7.093 631.144 8.64305C632.443 10.1931 633.426 12.3521 634.094 15.12C634.799 17.888 635.152 21.4863 635.152 25.915V41.8583C636.005 41.194 636.952 40.6588 637.991 40.2529C639.03 39.81 640.254 39.4225 641.664 39.0903C641.664 36.1379 642.165 33.5545 643.167 31.3401C644.169 29.1258 645.523 27.2067 647.23 25.5828C648.937 23.9221 650.941 22.5012 653.242 21.3202C655.543 20.1392 657.992 19.0689 660.589 18.1094L663.873 28.3508C661.461 28.9782 659.476 29.6794 657.917 30.4544C656.359 31.2294 655.097 32.0413 654.132 32.8902C653.168 33.739 652.425 34.6432 651.906 35.6027C651.386 36.5623 650.96 37.5588 650.626 38.5921C653.743 38.8505 656.841 39.6624 659.921 41.0279C663.001 42.3934 665.766 44.331 668.215 46.8406C670.701 49.3133 672.705 52.358 674.226 55.9748C675.785 59.5915 676.564 63.7803 676.564 68.5412ZM745.584 101.037C745.584 105.096 744.954 108.713 743.692 111.887C742.467 115.098 740.649 117.829 738.237 120.08C735.825 122.331 732.801 124.048 729.164 125.229C725.565 126.41 721.409 127 716.696 127C713.69 127 710.852 126.649 708.18 125.948C705.545 125.247 703.115 124.287 700.888 123.07C698.662 121.852 696.658 120.431 694.877 118.807C693.133 117.183 691.648 115.448 690.424 113.603C689.199 111.758 688.253 109.857 687.585 107.901C686.954 105.945 686.639 104.026 686.639 102.144C686.639 99.782 687.01 97.6783 687.752 95.833C688.531 93.9508 689.533 92.3085 690.758 90.9061C692.019 89.5037 693.43 88.3043 694.988 87.3078C696.584 86.3113 698.216 85.481 699.886 84.8167C701.556 84.1523 703.189 83.6357 704.784 83.2666C706.417 82.8606 707.864 82.5838 709.126 82.4362L710.907 87.9721C710.313 88.4519 709.683 89.1162 709.015 89.965C708.384 90.7769 707.79 91.7734 707.234 92.9544C706.714 94.1354 706.269 95.5009 705.898 97.0509C705.564 98.601 705.397 100.336 705.397 102.255C705.397 107.458 706.25 111.278 707.957 113.714C709.701 116.15 712.521 117.368 716.418 117.368C720.277 117.368 723.004 116.187 724.6 113.825C726.196 111.5 726.993 108.049 726.993 103.473V57.9123C726.993 55.8825 726.734 54.2402 726.214 52.9854C725.732 51.6937 725.045 50.6972 724.155 49.996C723.264 49.2948 722.188 48.8335 720.926 48.612C719.665 48.3537 718.292 48.2245 716.807 48.2245C715.471 48.2245 714.228 48.4091 713.078 48.7781C711.928 49.1472 710.926 49.7192 710.072 50.4942C709.219 51.2324 708.532 52.1919 708.013 53.3729C707.53 54.5539 707.289 55.9563 707.289 57.5802C707.289 58.3921 707.401 59.1487 707.623 59.8499C707.846 60.5142 708.198 61.16 708.681 61.7874C709.2 62.4148 709.868 63.0238 710.685 63.6143C711.538 64.2048 712.559 64.8137 713.746 65.4411L707.178 77.3986C704.84 76.6236 702.744 75.5164 700.888 74.0771C699.033 72.6377 697.474 71.0692 696.213 69.3716C694.951 67.6739 693.986 65.9578 693.318 64.2232C692.65 62.4517 692.316 60.8648 692.316 59.4624C692.316 55.6241 693.021 52.3764 694.431 49.7192C695.879 47.0251 697.771 44.8477 700.109 43.1869C702.484 41.5261 705.211 40.3267 708.291 39.5886C711.371 38.8136 714.581 38.426 717.921 38.426C722.262 38.426 726.14 38.9243 729.554 39.9207C732.968 40.8803 735.862 42.3012 738.237 44.1833C740.612 46.0286 742.43 48.3168 743.692 51.0478C744.954 53.7789 745.584 56.9159 745.584 60.4588V101.037ZM799.298 69.6484C799.298 66.2161 799.205 63.1345 799.019 60.4035C798.834 57.6355 798.37 55.292 797.628 53.3729C796.886 51.4538 795.791 49.9776 794.344 48.9442C792.897 47.9108 790.911 47.3942 788.388 47.3942C785.753 47.3942 783.713 47.9108 782.265 48.9442C780.855 49.9776 779.816 51.4538 779.148 53.3729C778.48 55.2551 778.072 57.5617 777.924 60.2927C777.812 62.9869 777.757 66.0131 777.757 69.3716C777.757 72.3978 777.812 75.258 777.924 77.9522C778.072 80.6463 778.499 83.0083 779.204 85.0381C779.946 87.0679 781.078 88.6733 782.599 89.8543C784.158 91.0353 786.347 91.6258 789.167 91.6258C791.616 91.6258 793.509 91.0906 794.845 90.0204C796.218 88.9501 797.238 87.5292 797.906 85.7578C798.574 83.9494 798.964 81.8457 799.075 79.4469C799.224 77.048 799.298 74.5199 799.298 71.8627V69.6484ZM818 69.4823C818 74.2431 817.351 78.598 816.052 82.5469C814.753 86.459 812.861 89.8174 810.374 92.6222C807.925 95.4271 804.882 97.6045 801.246 99.1546C797.646 100.705 793.546 101.48 788.945 101.48C783.935 101.48 779.556 100.612 775.809 98.8778C772.061 97.1432 768.944 94.8181 766.457 91.9026C763.971 88.9501 762.097 85.5548 760.836 81.7166C759.611 77.8415 758.999 73.7634 758.999 69.4823C758.999 67.1941 759.166 64.906 759.5 62.6178C759.834 60.3296 760.39 58.1153 761.17 55.9748C761.986 53.8342 763.044 51.8044 764.342 49.8853C765.641 47.9662 767.255 46.2501 769.185 44.7369C771.152 43.1869 773.452 41.8767 776.087 40.8065C778.721 39.7362 781.764 38.9796 785.215 38.5368C785.364 37.7617 785.457 37.0236 785.494 36.3224C785.568 35.5843 785.605 34.9015 785.605 34.2741C785.605 32.761 785.419 31.5062 785.048 30.5097C784.677 29.4764 784.176 28.6275 783.546 27.9632C782.952 27.2989 782.265 26.7638 781.486 26.3578C780.744 25.915 780.002 25.5275 779.26 25.1953C778.035 24.6417 776.792 24.0328 775.53 23.3685C774.306 22.6673 773.174 21.8184 772.135 20.822C771.096 19.8255 770.242 18.6445 769.574 17.279C768.944 15.8766 768.628 14.2343 768.628 12.3521V4.76794H786.05V12.3521C786.05 13.2009 786.125 13.9206 786.273 14.5111C786.458 15.1016 786.7 15.6367 786.997 16.1165C787.331 16.5593 787.683 16.9653 788.054 17.3344C788.462 17.7034 788.889 18.0725 789.334 18.4415C790.262 19.2535 791.208 20.1392 792.173 21.0988C793.138 22.0214 794.01 23.1101 794.789 24.3649C795.606 25.5828 796.255 27.0221 796.737 28.6829C797.257 30.3068 797.517 32.2074 797.517 34.3849C797.517 35.3813 797.498 36.1563 797.461 36.7099C797.461 37.2635 797.424 37.9463 797.35 38.7582C799.613 39.3856 801.951 40.4005 804.363 41.8029C806.812 43.1684 809.039 45.0506 811.042 47.4495C813.083 49.8484 814.753 52.8562 816.052 56.473C817.351 60.0528 818 64.3893 818 69.4823Z"/>
</mask>
<path d="M27.4949 31.3401C28.4226 30.5282 29.0534 29.2549 29.3874 27.5204C29.7585 25.7858 29.944 23.9959 29.944 22.1506C29.944 21.0803 29.8327 20.0838 29.61 19.1612C29.4245 18.2017 29.0905 17.3713 28.6081 16.6701C28.1628 15.9319 27.5506 15.3599 26.7713 14.9539C25.992 14.5111 25.0458 14.2896 23.9326 14.2896C23.042 14.2896 22.2627 14.548 21.5948 15.0647C20.9639 15.5444 20.4259 16.3564 19.9806 17.5004C19.5353 18.6076 19.2013 20.0654 18.9787 21.8738C18.756 23.6822 18.6447 25.8965 18.6447 28.5168V43.7958C19.3869 43.1684 20.2032 42.6333 21.0938 42.1904C21.9844 41.7107 22.9863 41.3231 24.0995 41.0279C25.2499 40.6957 26.5301 40.4559 27.9402 40.3082C29.3503 40.1606 30.9645 40.0868 32.7827 40.0868C36.4564 40.0868 39.9445 40.7511 43.2471 42.0797C46.5497 43.3714 49.4255 45.2167 51.8746 47.6156C54.3609 50.0145 56.3276 52.9116 57.7748 56.3069C59.2591 59.7022 60.0012 63.4851 60.0012 67.6554C60.0012 71.0139 59.5745 74.2062 58.721 77.2325C57.8675 80.2219 56.7172 82.9898 55.27 85.5363C53.8228 88.0828 52.153 90.371 50.2605 92.4008C48.368 94.4306 46.3827 96.1652 44.3047 97.6045C42.2266 99.0438 40.1301 100.151 38.0149 100.926C35.8998 101.664 33.9145 102.033 32.0591 102.033H26.9383V93.508H32.2818C33.0982 93.508 34.0444 93.0282 35.1205 92.0686C36.1966 91.1091 37.2171 89.6329 38.1819 87.6399C39.1838 85.647 40.0187 83.1374 40.6867 80.1112C41.3546 77.0849 41.6886 73.505 41.6886 69.3716C41.6886 66.5667 41.5216 63.9649 41.1876 61.566C40.8537 59.1671 40.3156 57.1004 39.5734 55.3658C38.8313 53.5943 37.8665 52.2288 36.679 51.2693C35.5287 50.2728 34.1001 49.7746 32.3931 49.7746C30.649 49.7746 28.9606 50.0883 27.3279 50.7157C25.7323 51.3062 24.3036 52.1366 23.042 53.2068C21.8174 54.2771 20.8341 55.5503 20.0919 57.0266C19.3498 58.4659 18.9787 60.0528 18.9787 61.7874V101.535H1V28.1847C1 24.1988 1.55662 20.7297 2.66985 17.7772C3.78308 14.8248 5.39726 12.3705 7.5124 10.4145C9.62754 8.45852 12.2065 7.00074 15.2494 6.04119C18.2922 5.04473 21.7432 4.5465 25.6024 4.5465C28.905 4.5465 31.7994 4.91556 34.2856 5.65368C36.8089 6.39179 38.9055 7.42516 40.5754 8.75376C42.2452 10.0824 43.4883 11.6509 44.3047 13.4593C45.1581 15.2676 45.5849 17.2421 45.5849 19.3826C45.5849 21.3017 45.121 23.1101 44.1934 24.8078C43.3028 26.4686 42.0968 28.0186 40.5754 29.4579C39.0539 30.8603 37.3099 32.1336 35.3432 33.2777C33.4136 34.4218 31.4283 35.4182 29.3874 36.2671L27.4949 31.3401ZM129.634 101.314C129.634 105.521 128.836 109.23 127.24 112.441C125.682 115.651 123.585 118.327 120.951 120.468C118.353 122.608 115.366 124.214 111.989 125.284C108.649 126.391 105.198 126.945 101.636 126.945C97.2945 126.945 93.2312 126.336 89.4462 125.118C85.6983 123.937 82.4143 122.313 79.5941 120.246C76.811 118.18 74.6031 115.725 72.9704 112.884C71.3747 110.079 70.5769 107.071 70.5769 103.86C70.5769 100.834 71.1521 98.2688 72.3024 96.1652C73.4528 94.0616 75.0298 92.3085 77.0337 90.9061C79.0375 89.4668 81.3938 88.3227 84.1027 87.4739C86.8115 86.625 89.743 85.9238 92.8972 85.3702L94.8453 91.0722C93.8434 91.8472 92.99 92.6776 92.2849 93.5633C91.5799 94.4491 91.0047 95.4455 90.5594 96.5527C90.1141 97.6599 89.7802 98.8962 89.5575 100.262C89.372 101.627 89.2792 103.159 89.2792 104.857C89.2792 107.366 89.5204 109.414 90.0028 111.001C90.4852 112.625 91.2459 113.898 92.2849 114.821C93.3239 115.744 94.6227 116.39 96.1812 116.759C97.7397 117.128 99.6137 117.312 101.803 117.312C103.362 117.312 104.697 116.98 105.811 116.316C106.961 115.651 107.907 114.692 108.649 113.437C109.392 112.219 109.93 110.743 110.264 109.008C110.635 107.274 110.82 105.336 110.82 103.196V97.7152C110.82 92.5484 110.078 88.6918 108.594 86.1453C107.109 83.5619 104.79 82.2701 101.636 82.2701H96.6265V73.8003H102.137C103.176 73.8003 104.196 73.6157 105.198 73.2467C106.237 72.8407 107.147 72.1949 107.926 71.3091C108.742 70.4234 109.392 69.2608 109.874 67.8215C110.356 66.3822 110.598 64.6107 110.598 62.5071C110.598 59.5915 110.412 57.2111 110.041 55.3658C109.707 53.4836 109.15 52.0258 108.371 50.9925C107.592 49.9591 106.571 49.2579 105.31 48.8888C104.048 48.4829 102.527 48.2799 100.745 48.2799C99.1127 48.2799 97.5913 48.4275 96.1812 48.7228C94.8082 48.9811 93.6022 49.4793 92.5632 50.2174C91.5242 50.9187 90.7078 51.9151 90.1141 53.2068C89.5575 54.4616 89.2792 56.0855 89.2792 58.0784C89.2792 58.7796 89.7802 59.4993 90.7821 60.2374C91.784 60.9755 93.1755 61.5844 94.9567 62.0642L90.4481 74.0771C87.8134 73.8187 85.5128 73.0621 83.5461 71.8074C81.5793 70.5526 79.9466 69.1317 78.6478 67.5447C77.3491 65.9578 76.3843 64.3524 75.7534 62.7285C75.1226 61.1047 74.8072 59.7576 74.8072 58.6873C74.8072 55.6241 75.438 52.8562 76.6997 50.3835C77.9985 47.8739 79.7982 45.7334 82.0989 43.9619C84.3995 42.1904 87.1455 40.8249 90.3368 39.8654C93.528 38.9058 97.0533 38.426 100.912 38.426C104.289 38.426 107.629 38.8136 110.932 39.5886C114.271 40.3636 117.258 41.563 119.893 43.1869C122.528 44.8107 124.661 46.859 126.294 49.3317C127.927 51.8044 128.743 54.72 128.743 58.0784C128.743 60.8094 128.335 63.2267 127.519 65.3304C126.702 67.3971 125.626 69.2055 124.29 70.7555C122.954 72.3056 121.433 73.6342 119.726 74.7414C118.019 75.8485 116.275 76.7712 114.494 77.5093C116.275 78.4319 118.056 79.5391 119.837 80.8308C121.656 82.0856 123.288 83.5249 124.736 85.1488C126.183 86.7727 127.352 88.5995 128.242 90.6293C129.17 92.6222 129.634 94.8181 129.634 97.217V101.314ZM198.654 101.037C198.654 105.096 198.023 108.713 196.762 111.887C195.537 115.098 193.719 117.829 191.307 120.08C188.895 122.331 185.871 124.048 182.234 125.229C178.635 126.41 174.478 127 169.766 127C166.76 127 163.921 126.649 161.25 125.948C158.615 125.247 156.184 124.287 153.958 123.07C151.731 121.852 149.728 120.431 147.946 118.807C146.202 117.183 144.718 115.448 143.494 113.603C142.269 111.758 141.323 109.857 140.655 107.901C140.024 105.945 139.709 104.026 139.709 102.144C139.709 99.782 140.08 97.6783 140.822 95.833C141.601 93.9508 142.603 92.3085 143.827 90.9061C145.089 89.5037 146.499 88.3043 148.058 87.3078C149.653 86.3113 151.286 85.481 152.956 84.8167C154.626 84.1523 156.259 83.6357 157.854 83.2666C159.487 82.8606 160.934 82.5838 162.196 82.4362L163.977 87.9721C163.383 88.4519 162.752 89.1162 162.084 89.965C161.454 90.7769 160.86 91.7734 160.303 92.9544C159.784 94.1354 159.339 95.5009 158.967 97.0509C158.633 98.601 158.466 100.336 158.466 102.255C158.466 107.458 159.32 111.278 161.027 113.714C162.771 116.15 165.591 117.368 169.487 117.368C173.347 117.368 176.074 116.187 177.67 113.825C179.265 111.5 180.063 108.049 180.063 103.473V57.9123C180.063 55.8825 179.803 54.2402 179.284 52.9854C178.801 51.6937 178.115 50.6972 177.224 49.996C176.334 49.2948 175.258 48.8335 173.996 48.612C172.734 48.3537 171.361 48.2245 169.877 48.2245C168.541 48.2245 167.298 48.4091 166.148 48.7781C164.997 49.1472 163.996 49.7192 163.142 50.4942C162.289 51.2324 161.602 52.1919 161.083 53.3729C160.6 54.5539 160.359 55.9563 160.359 57.5802C160.359 58.3921 160.47 59.1487 160.693 59.8499C160.916 60.5142 161.268 61.16 161.751 61.7874C162.27 62.4148 162.938 63.0238 163.754 63.6143C164.608 64.2048 165.628 64.8137 166.816 65.4411L160.248 77.3986C157.91 76.6236 155.813 75.5164 153.958 74.0771C152.103 72.6377 150.544 71.0692 149.282 69.3716C148.021 67.6739 147.056 65.9578 146.388 64.2232C145.72 62.4517 145.386 60.8648 145.386 59.4624C145.386 55.6241 146.091 52.3764 147.501 49.7192C148.948 47.0251 150.841 44.8477 153.179 43.1869C155.554 41.5261 158.281 40.3267 161.361 39.5886C164.441 38.8136 167.651 38.426 170.99 38.426C175.332 38.426 179.21 38.9243 182.624 39.9207C186.037 40.8803 188.932 42.3012 191.307 44.1833C193.682 46.0286 195.5 48.3168 196.762 51.0478C198.023 53.7789 198.654 56.9159 198.654 60.4588V101.037ZM253.87 69.2608C253.87 62.3964 253.017 57.4141 251.31 54.314C249.64 51.177 247.21 49.6085 244.018 49.6085C242.274 49.6085 240.604 49.996 239.009 50.771C237.413 51.5461 236.003 52.8193 234.778 54.5908C233.591 56.3254 232.645 58.5766 231.94 61.3446C231.235 64.1125 230.882 67.4894 230.882 71.4752C230.882 75.8301 231.123 79.3361 231.606 81.9934C232.088 84.6137 232.812 86.6435 233.777 88.0828C234.778 89.4852 236.003 90.4263 237.45 90.9061C238.897 91.349 240.586 91.5704 242.515 91.5704C245.966 91.5704 248.712 90.168 250.753 87.3632C252.831 84.5583 253.87 80.4802 253.87 75.1289V69.2608ZM272.74 69.1501C272.74 74.3539 271.923 78.9671 270.29 82.9898C268.695 86.9756 266.506 90.3525 263.722 93.1205C260.939 95.8515 257.674 97.9367 253.926 99.376C250.215 100.778 246.226 101.48 241.959 101.48C237.766 101.48 233.925 100.926 230.437 99.8189C226.986 98.6748 224.017 96.9956 221.531 94.7812C219.082 92.53 217.171 89.7436 215.798 86.4221C214.425 83.0636 213.738 79.1701 213.738 74.7414V25.9703C213.738 22.169 214.184 18.9213 215.074 16.2272C215.965 13.5331 217.282 11.3372 219.026 9.6395C220.807 7.90493 222.997 6.63168 225.594 5.81975C228.229 5.00782 231.272 4.60186 234.723 4.60186C237.172 4.60186 239.268 4.84175 241.013 5.32152C242.757 5.76439 244.259 6.26262 245.521 6.81621C246.783 7.33289 247.859 7.83112 248.749 8.31089C249.64 8.75376 250.419 8.9752 251.087 8.9752C252.015 8.9752 252.998 8.79067 254.037 8.42161C255.113 8.05255 256.227 7.55433 257.377 6.92693C258.527 6.29953 259.733 5.56141 260.995 4.71258C262.257 3.86374 263.593 2.95955 265.003 2L268.788 6.4287C267.934 7.97874 266.932 9.6026 265.782 11.3003C264.632 12.9979 263.314 14.5664 261.83 16.0058C260.383 17.4082 258.75 18.5707 256.932 19.4934C255.151 20.3791 253.202 20.822 251.087 20.822C249.64 20.822 248.304 20.6374 247.08 20.2684C245.855 19.8993 244.705 19.438 243.629 18.8844C242.59 18.3308 241.625 17.7219 240.734 17.0576C239.881 16.3933 239.083 15.7843 238.341 15.2307C237.636 14.6771 236.968 14.2158 236.337 13.8468C235.743 13.4777 235.205 13.2932 234.723 13.2932C233.981 13.2932 233.35 13.4777 232.83 13.8468C232.311 14.1789 231.884 14.751 231.55 15.5629C231.216 16.3379 230.975 17.3897 230.826 18.7183C230.678 20.0469 230.604 21.7077 230.604 23.7006L230.548 44.4601C231.661 43.6851 232.83 43.0208 234.055 42.4672C235.317 41.8767 236.56 41.397 237.784 41.0279C239.009 40.6219 240.178 40.3267 241.291 40.1422C242.404 39.9576 243.387 39.8654 244.241 39.8654C248.1 39.8654 251.755 40.4743 255.206 41.6922C258.657 42.8732 261.682 44.6816 264.279 47.1174C266.877 49.5162 268.936 52.561 270.457 56.2515C271.979 59.9052 272.74 64.2048 272.74 69.1501ZM366.863 69.3162C366.863 66.1423 366.548 63.3375 365.917 60.9017C365.286 58.4659 364.414 56.4361 363.301 54.8122C362.225 53.1515 360.945 51.9151 359.46 51.1032C357.976 50.2544 356.362 49.8299 354.618 49.8299C352.577 49.8299 350.907 50.2913 349.608 51.2139C348.347 52.1366 347.345 53.4467 346.602 55.1444C345.86 56.8051 345.341 58.8165 345.044 61.1785C344.784 63.5404 344.654 66.1423 344.654 68.9841C344.654 72.3056 344.821 75.3503 345.155 78.1182C345.489 80.8862 346.064 83.2666 346.881 85.2595C347.734 87.2524 348.866 88.8025 350.276 89.9097C351.723 91.0168 353.523 91.5704 355.675 91.5704C357.568 91.5704 359.201 91.349 360.574 90.9061C361.984 90.4263 363.152 89.4299 364.08 87.9167C365.008 86.3667 365.694 84.1339 366.14 81.2183C366.622 78.2659 366.863 74.2985 366.863 69.3162ZM384.619 74.4092C384.619 78.026 383.914 81.4767 382.504 84.7613C381.094 88.0459 379.09 90.9246 376.493 93.3973C373.932 95.8699 370.797 97.8444 367.086 99.3206C363.412 100.76 359.293 101.48 354.729 101.48C351.612 101.48 348.718 101.055 346.046 100.206C343.411 99.3206 341.018 98.1212 338.866 96.6081C336.713 95.058 334.802 93.2496 333.132 91.1829C331.5 89.1162 330.127 86.8834 329.013 84.4845C327.937 82.0856 327.102 79.576 326.509 76.9557C325.952 74.2985 325.674 71.6597 325.674 69.0394C325.674 64.9429 326.416 61.1416 327.9 57.6355C329.422 54.0926 331.481 51.0294 334.079 48.446C336.713 45.8257 339.793 43.7774 343.318 42.3012C346.881 40.788 350.703 40.0314 354.785 40.0314C357.011 40.0314 359.219 40.5297 361.408 41.5261C363.598 42.4857 365.527 43.6482 367.197 45.0137V18.8844C367.197 17.851 367.067 17.0391 366.808 16.4486C366.585 15.8212 366.251 15.3599 365.806 15.0647C365.36 14.7694 364.822 14.5849 364.192 14.5111C363.561 14.4373 362.837 14.4004 362.021 14.4004C361.019 14.4004 360.184 14.4742 359.516 14.6218C358.848 14.7694 358.31 15.12 357.902 15.6736C357.494 16.1903 357.197 16.9653 357.011 17.9987C356.863 18.9951 356.789 20.3606 356.789 22.0952V32.8902H345.545V22.0952C345.545 20.3606 345.415 18.9951 345.155 17.9987C344.896 16.9653 344.487 16.1903 343.931 15.6736C343.411 15.12 342.762 14.7694 341.983 14.6218C341.24 14.4742 340.368 14.4004 339.366 14.4004C337.697 14.4004 336.454 14.7694 335.637 15.5075C334.821 16.2087 334.413 17.3713 334.413 18.9951C334.413 20.619 334.487 21.966 334.635 23.0363C334.784 24.0697 334.988 24.9185 335.248 25.5828C335.544 26.2102 335.915 26.7084 336.361 27.0775C336.806 27.4097 337.326 27.6864 337.919 27.9079L335.192 35.0492C332.335 34.0158 329.923 32.8533 327.956 31.5616C325.989 30.233 324.394 28.8859 323.169 27.5204C321.944 26.118 321.054 24.734 320.497 23.3685C319.978 22.003 319.718 20.7297 319.718 19.5487C319.718 16.7439 320.2 14.3819 321.165 12.4628C322.167 10.5437 323.447 9.0121 325.006 7.86802C326.601 6.72394 328.401 5.91202 330.405 5.43224C332.446 4.91556 334.505 4.65722 336.583 4.65722C338.216 4.65722 339.738 4.89711 341.148 5.37688C342.595 5.85666 343.931 6.50251 345.155 7.31444C346.38 8.12637 347.493 9.04901 348.495 10.0824C349.497 11.1157 350.369 12.2045 351.111 13.3485C351.927 12.2783 352.855 11.2265 353.894 10.1931C354.97 9.12282 356.102 8.18172 357.289 7.3698C358.514 6.55787 359.757 5.91202 361.019 5.43224C362.318 4.91556 363.598 4.65722 364.859 4.65722C367.828 4.65722 370.518 4.97092 372.93 5.59832C375.379 6.22572 377.458 7.38825 379.164 9.08592C380.909 10.7467 382.244 13.0348 383.172 15.9504C384.137 18.866 384.619 22.5934 384.619 27.1329V74.4092ZM455.254 101.037C455.254 105.096 454.623 108.713 453.361 111.887C452.137 115.098 450.318 117.829 447.906 120.08C445.494 122.331 442.47 124.048 438.834 125.229C435.234 126.41 431.078 127 426.365 127C423.36 127 420.521 126.649 417.849 125.948C415.215 125.247 412.784 124.287 410.558 123.07C408.331 121.852 406.327 120.431 404.546 118.807C402.802 117.183 401.318 115.448 400.093 113.603C398.869 111.758 397.922 109.857 397.254 107.901C396.624 105.945 396.308 104.026 396.308 102.144C396.308 99.782 396.679 97.6783 397.421 95.833C398.201 93.9508 399.203 92.3085 400.427 90.9061C401.689 89.5037 403.099 88.3043 404.657 87.3078C406.253 86.3113 407.886 85.481 409.556 84.8167C411.226 84.1523 412.858 83.6357 414.454 83.2666C416.087 82.8606 417.534 82.5838 418.795 82.4362L420.577 87.9721C419.983 88.4519 419.352 89.1162 418.684 89.965C418.053 90.7769 417.46 91.7734 416.903 92.9544C416.383 94.1354 415.938 95.5009 415.567 97.0509C415.233 98.601 415.066 100.336 415.066 102.255C415.066 107.458 415.92 111.278 417.627 113.714C419.371 116.15 422.191 117.368 426.087 117.368C429.946 117.368 432.674 116.187 434.269 113.825C435.865 111.5 436.663 108.049 436.663 103.473V57.9123C436.663 55.8825 436.403 54.2402 435.884 52.9854C435.401 51.6937 434.715 50.6972 433.824 49.996C432.934 49.2948 431.857 48.8335 430.596 48.612C429.334 48.3537 427.961 48.2245 426.477 48.2245C425.141 48.2245 423.898 48.4091 422.747 48.7781C421.597 49.1472 420.595 49.7192 419.742 50.4942C418.888 51.2324 418.202 52.1919 417.682 53.3729C417.2 54.5539 416.959 55.9563 416.959 57.5802C416.959 58.3921 417.07 59.1487 417.293 59.8499C417.515 60.5142 417.868 61.16 418.35 61.7874C418.87 62.4148 419.538 63.0238 420.354 63.6143C421.207 64.2048 422.228 64.8137 423.415 65.4411L416.847 77.3986C414.51 76.6236 412.413 75.5164 410.558 74.0771C408.702 72.6377 407.144 71.0692 405.882 69.3716C404.62 67.6739 403.656 65.9578 402.988 64.2232C402.32 62.4517 401.986 60.8648 401.986 59.4624C401.986 55.6241 402.691 52.3764 404.101 49.7192C405.548 47.0251 407.441 44.8477 409.778 43.1869C412.153 41.5261 414.881 40.3267 417.961 39.5886C421.04 38.8136 424.25 38.426 427.59 38.426C431.932 38.426 435.809 38.9243 439.223 39.9207C442.637 40.8803 445.532 42.3012 447.906 44.1833C450.281 46.0286 452.1 48.3168 453.361 51.0478C454.623 53.7789 455.254 56.9159 455.254 60.4588V101.037ZM532.289 74.8521C532.289 78.9117 531.492 82.5838 529.896 85.8685C528.337 89.1531 526.222 91.9579 523.55 94.283C520.879 96.5712 517.78 98.3426 514.255 99.5974C510.767 100.852 507.093 101.48 503.234 101.48C499.226 101.48 495.534 100.76 492.157 99.3206C488.818 97.8444 485.923 95.8515 483.474 93.3419C481.062 90.8323 479.17 87.8983 477.797 84.5399C476.461 81.1445 475.793 77.5278 475.793 73.6895V18.8844C475.793 17.6296 475.756 16.6147 475.682 15.8397C475.607 15.0278 475.44 14.4004 475.181 13.9575C474.921 13.5146 474.568 13.2194 474.123 13.0717C473.678 12.9241 473.065 12.8503 472.286 12.8503C471.73 12.8503 471.266 12.9241 470.895 13.0717C470.561 13.2194 470.301 13.4962 470.115 13.9021C469.93 14.3081 469.8 14.8986 469.726 15.6736C469.689 16.4117 469.67 17.4082 469.67 18.663V27.4097H461.432V16.3379C461.432 14.751 461.711 13.2563 462.267 11.8539C462.824 10.4145 463.677 9.17818 464.828 8.14482C466.015 7.07455 467.518 6.24417 469.336 5.65368C471.192 5.02628 473.399 4.71258 475.96 4.71258C478.706 4.71258 481.174 5.11854 483.363 5.93047C485.552 6.70549 487.408 7.88648 488.929 9.47343C490.45 11.0235 491.619 12.961 492.436 15.2861C493.252 17.6112 493.66 20.3053 493.66 23.3685V69.3162C493.66 76.8819 494.402 82.4731 495.887 86.0899C497.408 89.7067 499.857 91.5151 503.234 91.5151C505.498 91.5151 507.353 91.3121 508.8 90.9061C510.247 90.5001 511.398 89.6698 512.251 88.415C513.105 87.1233 513.698 85.2964 514.032 82.9345C514.366 80.5725 514.533 77.417 514.533 73.4681C514.533 70.2573 514.236 67.6554 513.643 65.6625C513.086 63.6696 512.381 62.0458 511.528 60.791C510.674 59.4993 509.728 58.4474 508.689 57.6355C507.687 56.8236 506.759 55.9932 505.906 55.1444C505.052 54.2955 504.329 53.3175 503.735 52.2104C503.178 51.0663 502.9 49.5531 502.9 47.6709C502.9 46.4531 503.086 45.1983 503.457 43.9066C503.865 42.6148 504.588 41.3231 505.627 40.0314C506.704 38.7397 508.188 37.4665 510.08 36.2117C511.973 34.92 514.422 33.7205 517.428 32.6134L521.046 44.4048C519.042 44.4048 517.502 44.6447 516.426 45.1244C515.387 45.6042 514.867 46.2685 514.867 47.1174C514.867 48.9257 515.294 50.4758 516.148 51.7675C517.001 53.0223 518.077 54.2033 519.376 55.3105C520.675 56.3807 522.066 57.4694 523.55 58.5766C525.072 59.6838 526.482 60.9755 527.781 62.4517C529.08 63.8911 530.156 65.6072 531.009 67.6001C531.863 69.5561 532.289 71.9734 532.289 74.8521ZM600.085 76.7343C600.085 80.9784 599.269 84.6506 597.636 87.7507C596.003 90.8508 593.832 93.4157 591.124 95.4455C588.415 97.4753 585.298 98.9885 581.772 99.9849C578.284 100.981 574.685 101.48 570.974 101.48C567.486 101.48 564.146 100.981 560.955 99.9849C557.764 98.9885 554.962 97.5123 552.55 95.5562C550.138 93.5633 548.209 91.1091 546.761 88.1935C545.314 85.2411 544.591 81.8273 544.591 77.9522C544.591 75.664 544.887 73.4866 545.481 71.4198C546.075 69.3162 547.003 67.3787 548.264 65.6072C549.526 63.7988 551.159 62.138 553.162 60.6249C555.166 59.1118 557.578 57.8016 560.398 56.6944L565.297 69.6484C564.146 69.9436 563.126 70.3127 562.235 70.7555C561.382 71.1984 560.658 71.7704 560.064 72.4717C559.508 73.136 559.081 73.9479 558.784 74.9074C558.487 75.8301 558.339 76.9373 558.339 78.229C558.339 80.4433 558.691 82.3993 559.397 84.097C560.139 85.7578 561.085 87.1417 562.235 88.2489C563.423 89.3561 564.759 90.2049 566.243 90.7954C567.764 91.349 569.304 91.6258 570.863 91.6258C572.867 91.6258 574.518 91.2014 575.817 90.3525C577.153 89.5037 578.229 88.3227 579.045 86.8096C579.861 85.2595 580.437 83.4327 580.771 81.329C581.104 79.2254 581.271 76.9188 581.271 74.4092C581.271 72.0841 580.993 70.0174 580.437 68.209C579.88 66.3637 579.156 64.7399 578.266 63.3375C577.412 61.8981 576.448 60.6618 575.371 59.6284C574.332 58.5582 573.312 57.6171 572.31 56.8051C571.011 55.7718 569.731 54.6831 568.469 53.539C567.208 52.3949 566.076 51.1216 565.074 49.7192C564.072 48.2799 563.256 46.6929 562.625 44.9584C562.031 43.1869 561.734 41.1755 561.734 38.9243V33.942H576.54V38.8136C576.54 41.1017 576.8 43.0393 577.32 44.6262C577.876 46.2132 578.581 47.5787 579.435 48.7228C580.288 49.8299 581.271 50.8079 582.385 51.6568C583.498 52.4687 584.648 53.2437 585.836 53.9818C587.431 55.0152 589.064 56.2331 590.734 57.6355C592.404 59.0379 593.925 60.6802 595.298 62.5624C596.708 64.4077 597.859 66.5114 598.749 68.8733C599.64 71.1984 600.085 73.8187 600.085 76.7343ZM635.486 77.0111C635.486 81.6243 636.302 85.2042 637.935 87.7507C639.605 90.2603 642.017 91.5151 645.171 91.5151C647.657 91.5151 649.698 91.2936 651.294 90.8508C652.926 90.371 654.207 89.6513 655.134 88.6918C656.062 87.7322 656.711 86.5143 657.083 85.0381C657.454 83.5619 657.639 81.7904 657.639 79.7236V64.7768C657.639 62.6363 657.435 60.5511 657.027 58.5213C656.619 56.4914 656.006 54.7015 655.19 53.1515C654.374 51.5645 653.372 50.2913 652.184 49.3317C651.034 48.3722 649.68 47.8924 648.121 47.8924C646.488 47.8924 644.911 48.1876 643.39 48.7781C641.905 49.3686 640.57 50.199 639.382 51.2693C638.195 52.3395 637.248 53.6497 636.543 55.1997C635.838 56.7129 635.486 58.429 635.486 60.3481V77.0111ZM676.564 68.5412C676.564 74.5199 675.711 79.6129 674.004 83.8202C672.334 87.9906 670.052 91.3859 667.157 94.0062C664.3 96.6265 660.942 98.5272 657.083 99.7081C653.26 100.889 649.197 101.48 644.893 101.48C640.699 101.48 636.914 100.686 633.538 99.0992C630.198 97.5123 627.359 95.3533 625.021 92.6222C622.684 89.8912 620.884 86.6988 619.622 83.0452C618.361 79.3546 617.73 75.4057 617.73 71.1984V14.1236C617.73 13.3854 617.581 12.8872 617.285 12.6289C617.025 12.3705 616.394 12.2414 615.392 12.2414C614.427 12.2414 613.741 12.3705 613.333 12.6289C612.961 12.8872 612.776 13.4408 612.776 14.2896V25.0846H605.15V17.6665C605.15 13.0902 606.319 9.78713 608.657 7.75731C610.995 5.69058 614.817 4.65722 620.123 4.65722C622.498 4.65722 624.613 4.93401 626.469 5.4876C628.324 6.04119 629.883 7.093 631.144 8.64305C632.443 10.1931 633.426 12.3521 634.094 15.12C634.799 17.888 635.152 21.4863 635.152 25.915V41.8583C636.005 41.194 636.952 40.6588 637.991 40.2529C639.03 39.81 640.254 39.4225 641.664 39.0903C641.664 36.1379 642.165 33.5545 643.167 31.3401C644.169 29.1258 645.523 27.2067 647.23 25.5828C648.937 23.9221 650.941 22.5012 653.242 21.3202C655.543 20.1392 657.992 19.0689 660.589 18.1094L663.873 28.3508C661.461 28.9782 659.476 29.6794 657.917 30.4544C656.359 31.2294 655.097 32.0413 654.132 32.8902C653.168 33.739 652.425 34.6432 651.906 35.6027C651.386 36.5623 650.96 37.5588 650.626 38.5921C653.743 38.8505 656.841 39.6624 659.921 41.0279C663.001 42.3934 665.766 44.331 668.215 46.8406C670.701 49.3133 672.705 52.358 674.226 55.9748C675.785 59.5915 676.564 63.7803 676.564 68.5412ZM745.584 101.037C745.584 105.096 744.954 108.713 743.692 111.887C742.467 115.098 740.649 117.829 738.237 120.08C735.825 122.331 732.801 124.048 729.164 125.229C725.565 126.41 721.409 127 716.696 127C713.69 127 710.852 126.649 708.18 125.948C705.545 125.247 703.115 124.287 700.888 123.07C698.662 121.852 696.658 120.431 694.877 118.807C693.133 117.183 691.648 115.448 690.424 113.603C689.199 111.758 688.253 109.857 687.585 107.901C686.954 105.945 686.639 104.026 686.639 102.144C686.639 99.782 687.01 97.6783 687.752 95.833C688.531 93.9508 689.533 92.3085 690.758 90.9061C692.019 89.5037 693.43 88.3043 694.988 87.3078C696.584 86.3113 698.216 85.481 699.886 84.8167C701.556 84.1523 703.189 83.6357 704.784 83.2666C706.417 82.8606 707.864 82.5838 709.126 82.4362L710.907 87.9721C710.313 88.4519 709.683 89.1162 709.015 89.965C708.384 90.7769 707.79 91.7734 707.234 92.9544C706.714 94.1354 706.269 95.5009 705.898 97.0509C705.564 98.601 705.397 100.336 705.397 102.255C705.397 107.458 706.25 111.278 707.957 113.714C709.701 116.15 712.521 117.368 716.418 117.368C720.277 117.368 723.004 116.187 724.6 113.825C726.196 111.5 726.993 108.049 726.993 103.473V57.9123C726.993 55.8825 726.734 54.2402 726.214 52.9854C725.732 51.6937 725.045 50.6972 724.155 49.996C723.264 49.2948 722.188 48.8335 720.926 48.612C719.665 48.3537 718.292 48.2245 716.807 48.2245C715.471 48.2245 714.228 48.4091 713.078 48.7781C711.928 49.1472 710.926 49.7192 710.072 50.4942C709.219 51.2324 708.532 52.1919 708.013 53.3729C707.53 54.5539 707.289 55.9563 707.289 57.5802C707.289 58.3921 707.401 59.1487 707.623 59.8499C707.846 60.5142 708.198 61.16 708.681 61.7874C709.2 62.4148 709.868 63.0238 710.685 63.6143C711.538 64.2048 712.559 64.8137 713.746 65.4411L707.178 77.3986C704.84 76.6236 702.744 75.5164 700.888 74.0771C699.033 72.6377 697.474 71.0692 696.213 69.3716C694.951 67.6739 693.986 65.9578 693.318 64.2232C692.65 62.4517 692.316 60.8648 692.316 59.4624C692.316 55.6241 693.021 52.3764 694.431 49.7192C695.879 47.0251 697.771 44.8477 700.109 43.1869C702.484 41.5261 705.211 40.3267 708.291 39.5886C711.371 38.8136 714.581 38.426 717.921 38.426C722.262 38.426 726.14 38.9243 729.554 39.9207C732.968 40.8803 735.862 42.3012 738.237 44.1833C740.612 46.0286 742.43 48.3168 743.692 51.0478C744.954 53.7789 745.584 56.9159 745.584 60.4588V101.037ZM799.298 69.6484C799.298 66.2161 799.205 63.1345 799.019 60.4035C798.834 57.6355 798.37 55.292 797.628 53.3729C796.886 51.4538 795.791 49.9776 794.344 48.9442C792.897 47.9108 790.911 47.3942 788.388 47.3942C785.753 47.3942 783.713 47.9108 782.265 48.9442C780.855 49.9776 779.816 51.4538 779.148 53.3729C778.48 55.2551 778.072 57.5617 777.924 60.2927C777.812 62.9869 777.757 66.0131 777.757 69.3716C777.757 72.3978 777.812 75.258 777.924 77.9522C778.072 80.6463 778.499 83.0083 779.204 85.0381C779.946 87.0679 781.078 88.6733 782.599 89.8543C784.158 91.0353 786.347 91.6258 789.167 91.6258C791.616 91.6258 793.509 91.0906 794.845 90.0204C796.218 88.9501 797.238 87.5292 797.906 85.7578C798.574 83.9494 798.964 81.8457 799.075 79.4469C799.224 77.048 799.298 74.5199 799.298 71.8627V69.6484ZM818 69.4823C818 74.2431 817.351 78.598 816.052 82.5469C814.753 86.459 812.861 89.8174 810.374 92.6222C807.925 95.4271 804.882 97.6045 801.246 99.1546C797.646 100.705 793.546 101.48 788.945 101.48C783.935 101.48 779.556 100.612 775.809 98.8778C772.061 97.1432 768.944 94.8181 766.457 91.9026C763.971 88.9501 762.097 85.5548 760.836 81.7166C759.611 77.8415 758.999 73.7634 758.999 69.4823C758.999 67.1941 759.166 64.906 759.5 62.6178C759.834 60.3296 760.39 58.1153 761.17 55.9748C761.986 53.8342 763.044 51.8044 764.342 49.8853C765.641 47.9662 767.255 46.2501 769.185 44.7369C771.152 43.1869 773.452 41.8767 776.087 40.8065C778.721 39.7362 781.764 38.9796 785.215 38.5368C785.364 37.7617 785.457 37.0236 785.494 36.3224C785.568 35.5843 785.605 34.9015 785.605 34.2741C785.605 32.761 785.419 31.5062 785.048 30.5097C784.677 29.4764 784.176 28.6275 783.546 27.9632C782.952 27.2989 782.265 26.7638 781.486 26.3578C780.744 25.915 780.002 25.5275 779.26 25.1953C778.035 24.6417 776.792 24.0328 775.53 23.3685C774.306 22.6673 773.174 21.8184 772.135 20.822C771.096 19.8255 770.242 18.6445 769.574 17.279C768.944 15.8766 768.628 14.2343 768.628 12.3521V4.76794H786.05V12.3521C786.05 13.2009 786.125 13.9206 786.273 14.5111C786.458 15.1016 786.7 15.6367 786.997 16.1165C787.331 16.5593 787.683 16.9653 788.054 17.3344C788.462 17.7034 788.889 18.0725 789.334 18.4415C790.262 19.2535 791.208 20.1392 792.173 21.0988C793.138 22.0214 794.01 23.1101 794.789 24.3649C795.606 25.5828 796.255 27.0221 796.737 28.6829C797.257 30.3068 797.517 32.2074 797.517 34.3849C797.517 35.3813 797.498 36.1563 797.461 36.7099C797.461 37.2635 797.424 37.9463 797.35 38.7582C799.613 39.3856 801.951 40.4005 804.363 41.8029C806.812 43.1684 809.039 45.0506 811.042 47.4495C813.083 49.8484 814.753 52.8562 816.052 56.473C817.351 60.0528 818 64.3893 818 69.4823Z" stroke="#5A6B47" stroke-opacity="0.11" stroke-width="2" mask="url(#path-1-outside-1_3_687)"/>
</svg>
