<svg width="105" height="47" viewBox="0 0 105 47" fill="none" xmlns="http://www.w3.org/2000/svg">
<path fill-rule="evenodd" clip-rule="evenodd" d="M58.4427 29.0406C57.123 29.0406 56.1862 27.9762 56.1862 26.6986V26.6775C56.1862 25.4 57.1018 24.3567 58.4216 24.3567C59.7417 24.3567 60.6781 25.4214 60.6781 26.6986V26.7201C60.6781 27.9973 59.7628 29.0406 58.4427 29.0406ZM49.9565 30.552C51.3933 30.552 52.245 30.0411 53.0113 29.2217L51.9683 28.1675C51.3828 28.6999 50.8613 29.0406 50.0096 29.0406C48.7324 29.0406 47.8487 27.9762 47.8487 26.6986V26.6775C47.8487 25.4 48.7535 24.3567 50.0096 24.3567C50.7547 24.3567 51.3402 24.6763 51.9151 25.1981L52.9581 23.9951C52.2661 23.3137 51.4253 22.8456 50.0201 22.8456C47.7316 22.8456 46.1351 24.5806 46.1351 26.6986V26.7201C46.1351 28.8595 47.7636 30.552 49.9565 30.552ZM40.2672 24.4315H44.2588V22.9732H38.6384V24.4315H40.2672ZM38.6384 30.4243H44.3119V28.9661H40.2672V27.4012H43.7799V25.9429H40.2672H38.6384V30.4243ZM58.4216 30.552C60.7207 30.552 62.3921 28.817 62.3921 26.6986V26.6775C62.3921 24.5592 60.7421 22.8456 58.4427 22.8456C56.1436 22.8456 54.4726 24.5806 54.4726 26.6986V26.7201C54.4726 28.8384 56.1225 30.552 58.4216 30.552Z" fill="white"/>
<path fill-rule="evenodd" clip-rule="evenodd" d="M81.1238 30.0317H86.7973V28.5734H82.7523V27.0086H86.2649V25.5503H82.7523H81.1238V30.0317Z" fill="white"/>
<path fill-rule="evenodd" clip-rule="evenodd" d="M82.7523 24.0391H86.7439V22.5805H81.1238V24.0391H82.7523Z" fill="white"/>
<path fill-rule="evenodd" clip-rule="evenodd" d="M74.0591 30.1299H79.7326V28.6716H75.6876V22.705H74.0591V30.1299Z" fill="white"/>
<path fill-rule="evenodd" clip-rule="evenodd" d="M69.482 30.4541C70.9189 30.4541 71.7705 29.9432 72.5368 29.1235L71.4938 28.0696C70.9083 28.6017 70.3865 28.9424 69.5351 28.9424C68.2576 28.9424 67.3743 27.878 67.3743 26.6004V26.5793C67.3743 25.3021 68.279 24.2591 69.5351 24.2591C70.2803 24.2591 70.8658 24.5781 71.4404 25.0999L72.4837 23.8969C71.7917 23.2158 70.9509 22.7474 69.5457 22.7474C67.2572 22.7474 65.6606 24.4824 65.6606 26.6004V26.6222C65.6606 28.7616 67.2891 30.4541 69.482 30.4541Z" fill="white"/>
<path fill-rule="evenodd" clip-rule="evenodd" d="M97.7268 30.0317H99.3444V25.295L102.953 30.0317H104.347V22.5806H102.73V27.1686L99.2382 22.5806H97.7268V30.0317Z" fill="white"/>
<path fill-rule="evenodd" clip-rule="evenodd" d="M87.9844 30.0317H89.6554C90.8714 27.0482 90.7111 27.4284 91.9123 24.4968C93.0413 27.2531 93.0772 27.3539 94.1685 30.0317H95.8824L92.6891 22.5275H91.1777L87.9844 30.0317Z" fill="white"/>
<path d="M19.0793 42.3333C20.1292 41.8588 21.1985 41.3277 22.2799 40.7292C22.8961 40.3888 23.5012 40.0348 24.0961 39.6705V1.37202e-05L12.4639 9.13575V29.4184L19.0793 24.2232V42.3333Z" fill="white"/>
<path d="M35.7293 29.4582V23.5483L25.8049 15.755V38.574C29.8771 35.8433 33.3276 32.6295 35.7293 29.4582Z" fill="white"/>
<path d="M33.7529 12.3304C34.0411 12.375 34.1655 12.4867 34.1896 12.7698L34.47 15.7549L34.7513 12.7698C34.7754 12.4867 34.9009 12.375 35.1889 12.3304L38.1736 12.0512L35.1889 11.7711C34.9009 11.7268 34.7754 11.6151 34.7513 11.3326L34.47 8.34785L34.1896 11.3326C34.1655 11.6151 34.0411 11.7268 33.7529 11.7711L30.7678 12.0512L33.7529 12.3304Z" fill="white"/>
<path d="M29.5734 7.61877L29.8282 10.3286L30.0829 7.61877C30.1052 7.36133 30.2193 7.26053 30.481 7.2216L33.1902 6.96749L30.481 6.71247C30.2193 6.67233 30.1052 6.57032 30.0829 6.315L29.8282 3.60334L29.5734 6.315C29.5517 6.57032 29.4385 6.67233 29.1766 6.71247L26.467 6.96749L29.1766 7.2216C29.4385 7.26053 29.5517 7.36133 29.5734 7.61877Z" fill="white"/>
<path d="M38.0527 8.29256L38.1867 9.70679L38.3192 8.29256C38.331 8.15886 38.3895 8.10605 38.5265 8.08492L39.9408 7.95243L38.5265 7.81964C38.3895 7.79761 38.331 7.7457 38.3192 7.61231L38.1867 6.19778L38.0527 7.61231C38.0409 7.7457 37.9824 7.79761 37.8454 7.81964L36.4312 7.95243L37.8454 8.08492C37.9824 8.10605 38.0409 8.15886 38.0527 8.29256Z" fill="white"/>
<path d="M30.3206 14.6678L30.1881 13.2533L30.0547 14.6678C30.0429 14.8009 29.9838 14.8546 29.8471 14.8757L28.4316 15.0076L29.8471 15.141C29.9838 15.1615 30.0429 15.2147 30.0547 15.3487L30.1881 16.7632L30.3206 15.3487C30.3318 15.2147 30.3903 15.1615 30.5279 15.141L31.9428 15.0076L30.5279 14.8757C30.3903 14.8546 30.3318 14.8009 30.3206 14.6678Z" fill="white"/>
<path d="M11.7764 34.9342L11.7927 34.93L12.2101 35.5315L13.426 37.2415L13.4022 37.2469C14.5807 38.9201 15.8422 40.5039 17.3708 41.4866V27.7369L10.3936 33.2167C10.8788 33.7524 11.3409 34.3294 11.7764 34.9342Z" fill="white"/>
<path d="M6.38978 32.7004C6.37228 32.5878 6.35387 32.4708 6.33063 32.3531L6.31825 32.3561L1.89842 10.8291C1.73394 9.94604 1.16535 9.32374 0.637205 9.44234C0.105135 9.56034 -0.143245 10.3683 0.0846128 11.2368L5.20915 32.6041L5.19889 32.6066C5.22454 32.7092 5.25291 32.8094 5.28248 32.9072C3.72702 33.5452 3.17684 35.5192 2.74557 37.9233L10.6144 36.1626C9.25747 34.2547 7.97362 32.746 6.38978 32.7004Z" fill="white"/>
<path d="M16.951 43.2118C14.438 41.8269 12.674 39.1225 11.0627 36.8019L2.61322 38.6927C2.14422 41.478 1.70088 44.6759 0.0168457 47L2.6781 46.4052L3.92332 42.9061L3.67011 46.1842L6.27523 45.6003L6.80731 41.185L7.3599 45.3516L10.5119 44.6493L9.57932 42.4238L11.7281 44.3783L13.4055 44.0047L10.7678 39.0509L14.1633 43.835L16.951 43.2118Z" fill="white"/>
</svg>
