<svg width="154" height="69" viewBox="0 0 154 69" fill="none" xmlns="http://www.w3.org/2000/svg">
<path fill-rule="evenodd" clip-rule="evenodd" d="M85.799 42.634C83.8615 42.634 82.4862 41.0713 82.4862 39.1958V39.1648C82.4862 37.2893 83.8305 35.7576 85.768 35.7576C87.706 35.7576 89.0808 37.3208 89.0808 39.1958V39.2273C89.0808 41.1023 87.737 42.634 85.799 42.634ZM73.3405 44.8529C75.4499 44.8529 76.7002 44.1028 77.8252 42.8999L76.2939 41.3522C75.4344 42.1338 74.6688 42.634 73.4184 42.634C71.5434 42.634 70.2461 41.0713 70.2461 39.1958V39.1648C70.2461 37.2893 71.5744 35.7576 73.4184 35.7576C74.5124 35.7576 75.3719 36.2269 76.2159 36.9929L77.7472 35.2269C76.7312 34.2264 75.4968 33.5392 73.4339 33.5392C70.0742 33.5392 67.7304 36.0864 67.7304 39.1958V39.2273C67.7304 42.3682 70.1211 44.8529 73.3405 44.8529ZM59.1158 35.8675H64.9758V33.7266H56.7246V35.8675H59.1158ZM56.7246 44.6655H65.0538V42.5246H59.1158V40.2273H64.2727V38.0864H59.1158H56.7246V44.6655ZM85.768 44.8529C89.1433 44.8529 91.597 42.3057 91.597 39.1958V39.1648C91.597 36.0549 89.1747 33.5392 85.799 33.5392C82.4237 33.5392 79.9705 36.0864 79.9705 39.1958V39.2273C79.9705 42.3372 82.3927 44.8529 85.768 44.8529Z" fill="#B8DD8E"/>
<path fill-rule="evenodd" clip-rule="evenodd" d="M119.097 44.0891H127.426V41.9482H121.487V39.6509H126.644V37.5101H121.487H119.097V44.0891Z" fill="#3F3222"/>
<path fill-rule="evenodd" clip-rule="evenodd" d="M121.487 35.2914H127.347V33.1501H119.097V35.2914H121.487Z" fill="#3F3222"/>
<path fill-rule="evenodd" clip-rule="evenodd" d="M108.725 44.2332H117.054V42.0923H111.116V33.3329H108.725V44.2332Z" fill="#3F3222"/>
<path fill-rule="evenodd" clip-rule="evenodd" d="M102.005 44.7092C104.115 44.7092 105.365 43.9591 106.49 42.7557L104.959 41.2085C104.099 41.9896 103.333 42.4898 102.083 42.4898C100.208 42.4898 98.911 40.9272 98.911 39.0517V39.0206C98.911 37.1456 100.239 35.6144 102.083 35.6144C103.177 35.6144 104.037 36.0827 104.88 36.8487L106.412 35.0827C105.396 34.0827 104.162 33.395 102.099 33.395C98.7391 33.395 96.3953 35.9422 96.3953 39.0517V39.0836C96.3953 42.2244 98.786 44.7092 102.005 44.7092Z" fill="#3F3222"/>
<path fill-rule="evenodd" clip-rule="evenodd" d="M143.471 44.0891H145.846V37.1352L151.144 44.0891H153.191V33.1503H150.816V39.8858L145.69 33.1503H143.471V44.0891Z" fill="#3F3222"/>
<path fill-rule="evenodd" clip-rule="evenodd" d="M129.169 44.0891H131.622C133.407 39.709 133.172 40.2672 134.935 35.9633C136.593 40.0098 136.645 40.1578 138.248 44.0891H140.764L136.076 33.0723H133.857L129.169 44.0891Z" fill="#3F3222"/>
<path d="M28.0098 62.1488C29.5513 61.4523 31.1211 60.6725 32.7086 59.7939C33.6133 59.2941 34.5016 58.7744 35.3749 58.2396V0L18.2979 13.412V43.1887L28.0098 35.5618V62.1488Z" fill="#B8DD8E"/>
<path d="M52.4536 43.2471V34.571L37.8838 23.1297V56.6299C43.8621 52.6211 48.9276 47.9029 52.4536 43.2471Z" fill="#B8DD8E"/>
<path d="M49.552 18.1023C49.9752 18.1679 50.1577 18.3318 50.1932 18.7474L50.6048 23.1297L51.0177 18.7474C51.0531 18.3318 51.2375 18.1679 51.6601 18.1023L56.0421 17.6924L51.6601 17.2813C51.2375 17.2162 51.0531 17.0522 51.0177 16.6375L50.6048 12.2556L50.1932 16.6375C50.1577 17.0522 49.9752 17.2162 49.552 17.2813L45.1697 17.6924L49.552 18.1023Z" fill="#B8DD8E"/>
<path d="M43.4162 11.185L43.7901 15.1633L44.1641 11.185C44.1969 10.8071 44.3643 10.6591 44.7485 10.6019L48.7259 10.2289L44.7485 9.85449C44.3643 9.79557 44.1969 9.64581 44.1641 9.27098L43.7901 5.29003L43.4162 9.27098C43.3843 9.64581 43.2181 9.79557 42.8336 9.85449L38.8557 10.2289L42.8336 10.6019C43.2181 10.6591 43.3843 10.8071 43.4162 11.185Z" fill="#B8DD8E"/>
<path d="M55.8645 12.1744L56.0612 14.2506L56.2557 12.1744C56.273 11.9781 56.3589 11.9006 56.5601 11.8696L58.6363 11.675L56.5601 11.4801C56.3589 11.4478 56.273 11.3715 56.2557 11.1757L56.0612 9.09907L55.8645 11.1757C55.8472 11.3715 55.7612 11.4478 55.5601 11.4801L53.4839 11.675L55.5601 11.8696C55.7612 11.9006 55.8472 11.9781 55.8645 12.1744Z" fill="#B8DD8E"/>
<path d="M44.5134 21.5337L44.3189 19.457L44.123 21.5337C44.1058 21.7291 44.0189 21.8079 43.8182 21.839L41.7402 22.0326L43.8182 22.2284C44.0189 22.2585 44.1058 22.3365 44.123 22.5332L44.3189 24.6099L44.5134 22.5332C44.5298 22.3365 44.6157 22.2585 44.8178 22.2284L46.8949 22.0326L44.8178 21.839C44.6157 21.8079 44.5298 21.7291 44.5134 21.5337Z" fill="#B8DD8E"/>
<path d="M17.2887 51.2863L17.3126 51.2801L17.9254 52.1632L19.7105 54.6736L19.6755 54.6815C21.4056 57.1379 23.2576 59.4631 25.5018 60.9057V40.7201L15.2585 48.7648C15.971 49.5513 16.6493 50.3984 17.2887 51.2863Z" fill="#B8DD8E"/>
<path d="M9.38074 48.0071C9.35504 47.8418 9.32802 47.6699 9.2939 47.4971L9.27573 47.5015L2.78704 15.8981C2.54557 14.6017 1.71084 13.6881 0.935471 13.8622C0.154347 14.0355 -0.210296 15.2216 0.124219 16.4967L7.64747 47.8657L7.63241 47.8693C7.67007 48.0199 7.71171 48.167 7.75514 48.3106C5.47158 49.2472 4.66387 52.1453 4.03073 55.6748L15.5828 53.0899C13.5907 50.2889 11.7059 48.074 9.38074 48.0071Z" fill="#B8DD8E"/>
<path d="M24.8855 63.4386C21.1961 61.4054 18.6064 57.4351 16.2409 54.0284L3.83635 56.8042C3.14783 60.8932 2.49696 65.588 0.0246582 69L3.93161 68.1267L5.7597 62.9898L5.38797 67.8024L9.21251 66.9451L9.99363 60.463L10.8049 66.58L15.4323 65.549L14.0632 62.2818L17.2178 65.1511L19.6804 64.6026L15.808 57.3301L20.7929 64.3536L24.8855 63.4386Z" fill="#B8DD8E"/>
</svg>
